<?xml version="1.0" standalone="no"?>
<!DOCTYPE svg PUBLIC "-//W3C//DTD SVG 1.1//EN" "http://www.w3.org/Graphics/SVG/1.1/DTD/svg11.dtd" >
<svg xmlns="http://www.w3.org/2000/svg" xmlns:xlink="http://www.w3.org/1999/xlink" version="1.1">
<metadata>
Created by FontForge 20170731 at Thu Apr 29 15:26:49 2021
 By Aleksey,,,
</metadata>
<defs>
<font id="FluffyGichi-Regular" horiz-adv-x="250" >
  <font-face 
    font-family="Fluffy Gichi"
    font-weight="400"
    font-stretch="normal"
    units-per-em="1000"
    panose-1="2 0 5 3 0 0 0 0 0 0"
    ascent="800"
    descent="-200"
    x-height="418"
    cap-height="613"
    bbox="10 -102 523 708"
    underline-thickness="50"
    underline-position="-150"
    unicode-range="U+000D-00A0"
  />
<missing-glyph horiz-adv-x="364" 
d="M33 0v666h265v-666h-265zM66 33h199v600h-199v-600z" />
    <glyph glyph-name=".notdef" horiz-adv-x="364" 
d="M33 0v666h265v-666h-265zM66 33h199v600h-199v-600z" />
    <glyph glyph-name=".null" 
 />
    <glyph glyph-name=".null" 
 />
    <glyph glyph-name="nonmarkingreturn" horiz-adv-x="333" 
 />
    <glyph glyph-name="CR" unicode="&#xd;" 
 />
    <glyph glyph-name="space" unicode=" " 
 />
    <glyph glyph-name="A" unicode="A" horiz-adv-x="409" 
d="M240 349q1 1 1 5q0 10 -8.5 33.5t-10.5 25.5h-1q-7 0 -19 -28l-15 -33l24 -4q24 -4 29 1zM207 613q7 3 17 3q18 0 35 -12q12 -8 38 -82q25 -71 63.5 -206t38.5 -149t-8 -30t-18 -21t-27 -5q-20 0 -33 16.5t-24 57.5t-22 47.5t-71 8.5l-54 2l-19 -47q-17 -40 -30.5 -55
t-34.5 -15q-48 2 -48 51q0 13 32.5 96t74.5 175q44 95 51 117q12 38 39 48z" />
    <glyph glyph-name="B" unicode="B" horiz-adv-x="287" 
d="M157 236q14 11 14 31t-13 38t-30 18h-16l4 -50q4 -51 5 -52t3 -1q13 0 33 16zM150 481q0 39 -28 39q-5 0 -6.5 -6t-1.5 -29v-19q0 -21 7 -21q5 0 14 6q10 5 12.5 10t2.5 20zM73 621q21 6 40 6q58 0 100 -42.5t43 -105.5v-9q0 -28 -14 -53l-15 -28l10 -13q28 -35 37 -85
q3 -16 3 -32q0 -53 -47 -96q-24 -22 -49 -32.5t-72 -18.5q-36 -6 -45 -6q-10 0 -20 7q-21 14 -26 50t-7 205q-1 62 -1 138q0 74 7 84q7 12 18 17.5t38 13.5z" />
    <glyph glyph-name="C" unicode="C" horiz-adv-x="272" 
d="M184 626q15 4 27 4q16 0 33 -13q18 -14 18 -37q0 -18 -12 -33q-15 -17 -33 -20q-20 -4 -51 -35t-40 -62q-9 -30 -9 -78t9 -75q8 -26 31.5 -50.5t46.5 -31.5q40 -12 46 -49q1 -4 1 -11q0 -11 -13 -25q-13 -17 -31 -17h-8q-40 1 -86.5 36t-71.5 83q-31 64 -31 144
q0 79 31 141q24 45 65.5 82.5t77.5 46.5z" />
    <glyph glyph-name="D" unicode="D" horiz-adv-x="310" 
d="M167 494q-29 34 -47 34q-3 0 -4 -1q-3 -3 -3 -95q0 -112 4 -155l3 -47l18 17q22 21 38 57.5t19 71.5q1 8 1 24q0 59 -29 94zM43 630q17 10 43 10q36 0 77.5 -18t71.5 -48q65 -65 65 -175q0 -76 -34 -147.5t-94 -111.5q-50 -33 -82 -33q-12 0 -25 3q-31 7 -39.5 23.5
t-11.5 73.5q-4 68 -4 219v52q0 91 5.5 115t27.5 37z" />
    <glyph glyph-name="E" unicode="E" horiz-adv-x="225" 
d="M25 606q15 13 31 17t48 5h11h5q86 0 86 -58q0 -19 -13 -32q-14 -14 -37 -14q-2 0 -8 0.5t-10 0.5l-20 1v-89h21q30 0 48.5 -14.5t18.5 -36.5q0 -13 -5 -23q-11 -23 -57 -29l-28 -3l-2 -47q0 -7 -0.5 -18t-0.5 -15q0 -23 4 -29t18 -6h13h10q23 0 34 -8q22 -15 22 -40
q0 -21 -18 -39q-10 -10 -21 -13t-45 -6q-34 -2 -50 -2t-20 1q-17 3 -30.5 17t-17.5 33q-2 14 -2 137v88l2 209z" />
    <glyph glyph-name="F" unicode="F" horiz-adv-x="232" 
d="M48 617q18 7 58 7q36 0 56 -6q15 -5 27.5 -19.5t12.5 -28.5q0 -22 -21 -38.5t-49 -16.5h-18v-48q0 -50 4 -55q6 -8 26 -4q4 1 11 1q26 0 46 -14t20 -36q0 -11 -6 -25q-13 -25 -65 -31l-29 -3v-75q0 -71 -9 -92t-40 -22q-31 0 -46 38q-16 41 -16 299q0 97 1.5 117t9.5 30
q11 15 27 22z" />
    <glyph glyph-name="G" unicode="G" horiz-adv-x="362" 
d="M195 604q39 13 69 13q59 0 59 -52q0 -38 -59 -50q-62 -12 -98 -48q-25 -25 -36 -50.5t-13 -64.5q-1 -7 -1 -21q0 -120 102 -135l27 -3l-1 43l-2 42l-17 6q-37 12 -37 46q0 13 8 29q12 26 52 26q10 0 15 -1q57 -6 72 -37q17 -36 17 -137q0 -19 -1 -27q-4 -53 -22.5 -71
t-70.5 -21q-2 0 -8 -0.5t-8 -0.5q-61 0 -115 27q-21 11 -47 38.5t-39 51.5q-31 62 -31 131q0 89 50 163t135 103z" />
    <glyph glyph-name="H" unicode="H" horiz-adv-x="330" 
d="M243 610q6 2 11 2q24 0 41 -17l13 -13l3 -170q4 -174 7 -216q2 -24 2 -32q0 -45 -25 -60q-16 -8 -27 -8q-14 0 -29 12q-14 12 -17.5 28.5t-8.5 85.5q-3 52 -6.5 65.5t-15.5 13.5q-3 0 -17.5 -2t-27.5 -2h-27l-1 -79q-1 -57 -3.5 -70.5t-10.5 -22.5q-16 -17 -33 -17
q-9 0 -22 5q-26 11 -31 44.5t-7 204.5q-1 60 -1 134q0 71 7 85q9 17 18 22q12 5 24 5q23 0 38 -12l14 -13l2 -88q2 -62 3 -75t7 -14h14q61 0 64 3q2 2 4 73q4 85 5 88q1 12 11 23.5t22 16.5z" />
    <glyph glyph-name="I" unicode="I" horiz-adv-x="232" 
d="M83 610q19 3 37 3q60 0 77 -28q10 -16 10 -29q0 -16 -21 -36l-21 -20l2 -152l1 -151l17 -4q16 -4 26.5 -18t10.5 -31q0 -20 -14.5 -34t-39.5 -18q-16 -2 -28 -2q-31 0 -64.5 6t-43.5 13q-20 14 -20 40q0 31 28 44l17 8v304l-13 3q-15 4 -24 18t-9 31q0 21 13 33
q14 13 30 16q4 0 29 4z" />
    <glyph glyph-name="J" unicode="J" horiz-adv-x="343" 
d="M187 619q26 2 42 2q56 0 78 -10q26 -14 26 -43q0 -7 -1 -10q-6 -25 -35 -37l-14 -5l-2 -155q-3 -159 -8 -173q-7 -22 -25 -46.5t-37 -38.5q-16 -10 -26 -12.5t-39 -2.5q-75 0 -107 46q-29 43 -29 90q0 8 1 12q3 21 18.5 33.5t34.5 12.5q26 0 38 -22q7 -14 12 -37
q6 -26 14 -31q4 -3 11 -3q21 0 29 19q10 23 10 168q0 34 -2 78q-2 41 -4.5 52t-10.5 14q-31 12 -31 46q0 21 14 35t43 18z" />
    <glyph glyph-name="K" unicode="K" horiz-adv-x="315" 
d="M34 592q17 17 37 17q14 0 26 -9q22 -14 26 -62l4 -31l28 39q26 37 38 46.5t31 10.5q21 0 35.5 -14.5t14.5 -35.5q0 -13 -7.5 -27t-34.5 -49l-42 -56l17 -34q32 -65 65 -139.5t33 -82.5q0 -12 -12 -29q-11 -18 -32 -19h-10q-19 0 -31.5 15t-36.5 67q-41 82 -48 98l-14 28
l-3 -44q0 -3 -4 -82q-2 -92 -52 -92q-7 0 -11 1q-16 4 -28 19q-9 11 -11 23t-2 59q0 52 4 216l3 150z" />
    <glyph glyph-name="L" unicode="L" horiz-adv-x="229" 
d="M39 606q9 4 20 4q17 0 30.5 -12t18.5 -32q7 -23 7 -132q2 -139 4 -164l3 -55h25q40 0 61 -22q11 -13 11 -30q0 -19 -13 -35q-9 -10 -18.5 -12t-52.5 -4q-6 0 -16 -0.5t-14 -0.5q-38 0 -54.5 7.5t-27.5 28.5q-8 16 -9 43t-3 183q0 25 -0.5 61t-0.5 49q0 56 2.5 80
t7.5 30.5t19 12.5z" />
    <glyph glyph-name="M" unicode="M" horiz-adv-x="394" 
d="M287 605q13 8 28 8q21 0 34 -12q14 -13 19 -34.5t5 -71.5q0 -59 6 -113q5 -45 5 -143v-34q0 -63 -10 -75q-16 -24 -39 -24q-7 0 -16 3q-37 12 -38 96q0 52 -3.5 104.5t-7.5 52.5q-3 0 -9 -17q-7 -20 -23.5 -37.5t-31.5 -20.5q-4 -1 -11 -1q-16 0 -29 11.5t-28 39.5
l-20 38l-1 -36q-4 -86 -6 -108q-3 -51 -5.5 -63t-12.5 -22q-14 -14 -34 -14t-35 15l-14 14l2 199q2 201 5 212q4 14 18 24t30 10h2q25 -1 45 -20t45 -64q28 -53 35 -62q0 -1 1 -1q6 0 41 65q36 70 53 81z" />
    <glyph glyph-name="N" unicode="N" horiz-adv-x="347" 
d="M45 591q11 8 27 8q33 0 56 -35q14 -22 56 -99l43 -80l3 89q2 67 4 79.5t13 23.5q15 15 34 15q21 0 36 -17l14 -16l4 -187q1 -48 1 -116q0 -76 -6.5 -99t-27.5 -35q-9 -5 -21 -5q-20 0 -37 17q-17 20 -69 125l-55 111l-6 -115l-5 -115l-14 -14q-15 -15 -34 -15
q-18 0 -32.5 13t-17.5 34q-1 5 -1 57q0 91 2 147q4 145 9 180t24 49z" />
    <glyph glyph-name="O" unicode="O" horiz-adv-x="491" 
d="M310 498q-27 15 -51 15q-15 0 -30 -4q-33 -9 -61 -33t-42 -55q-10 -23 -10 -54q0 -32 10 -55q10 -22 32.5 -45.5t42.5 -33.5t44 -10q34 0 66 21t51 58q14 28 14 63q0 33 -12 65q-18 48 -54 68zM200 610q24 9 51 9q52 0 103.5 -28.5t81.5 -74.5q35 -54 44 -135q1 -5 1 -16
q0 -59 -35.5 -121t-86.5 -92q-53 -32 -117 -32q-27 0 -43 5q-50 13 -102 65q-27 27 -42 51t-37 77q-8 16 -8 44q0 26 5 46q16 78 72 132q27 27 49.5 41t63.5 29z" />
    <glyph glyph-name="P" unicode="P" horiz-adv-x="280" 
d="M147 487q-19 22 -30 22q-2 0 -3 -1v-2q0 -3 -0.5 -6.5t-0.5 -7.5q0 -9 2 -51q2 -64 10 -64q18 0 29 17.5t11 41.5q0 32 -18 51zM59 614q25 5 36 5q14 0 41 -8q60 -17 97 -65.5t37 -111.5q0 -58 -35.5 -101.5t-94.5 -58.5l-25 -6l1 -58v-40q0 -30 -2.5 -38t-12.5 -18
q-15 -15 -34 -15q-36 0 -49 38q-4 13 -6 231l-2 215l13 13q15 13 36 18z" />
    <glyph glyph-name="Q" unicode="Q" horiz-adv-x="464" 
d="M302 523q-17 10 -49 12h-12q-73 0 -107 -67q-19 -37 -19 -90q0 -82 37 -119q11 -11 31 -18.5t35 -7.5q9 0 12 3t-10 28q-10 19 -10 33q0 16 16 32q14 12 31 12q20 0 30.5 -7t22.5 -27q15 -23 20 -16q21 27 21 101q0 33 -6 57q-15 58 -43 74zM177 629q30 11 69 11
q47 0 86 -18q61 -29 87 -79q36 -67 36 -153q0 -113 -58 -182l-19 -22l11 -20q3 -5 9 -13.5t8.5 -13t5 -13.5t2.5 -20q0 -21 -16 -35q-14 -13 -35 -13q-14 0 -24 7q-9 6 -31 38l-19 30l-60 -1q-41 0 -55 2.5t-39 14.5q-44 21 -69 53.5t-44 92.5q-12 37 -12 82q0 74 31 136
q40 82 136 116z" />
    <glyph glyph-name="R" unicode="R" horiz-adv-x="297" 
d="M130 516q-12 6 -13 6q-3 0 -3 -60q0 -59 5 -59q6 0 21 15t15 39q0 45 -25 59zM52 620q17 10 43 10q62 0 111 -44q53 -48 53 -125q0 -69 -43 -113l-16 -16l18 -28q16 -24 45 -80q24 -48 24 -66q0 -17 -15 -32q-10 -12 -34 -12q-20 0 -31 10q-9 8 -46 72q-34 63 -40 63
q-3 -1 -3 -29v-19v-17q0 -52 -23 -67q-10 -7 -27 -7q-20 0 -30 9q-18 14 -21.5 43t-4.5 173v25l-2 206l12 17q13 18 30 27z" />
    <glyph glyph-name="S" unicode="S" horiz-adv-x="236" 
d="M108 622q23 13 46 13q40 0 52 -39q2 -8 2 -13q0 -21 -16 -38.5t-37 -17.5q-12 0 -24.5 -17t-12.5 -34q0 -27 37 -65q31 -33 51 -80.5t20 -88.5q0 -31 -27 -66t-62 -52q-20 -10 -48 -10q-51 0 -71 28q-8 11 -8 31q0 14 5 24q14 25 50 25q7 0 10 -1q6 -1 15 -1q11 0 20 10
q11 11 11 21q0 6 -1 9q-8 44 -51 92q-31 34 -43 61q-14 31 -14 61q0 45 26 85.5t70 62.5z" />
    <glyph glyph-name="T" unicode="T" horiz-adv-x="338" 
d="M48 642q4 1 38 1q179 0 205 -8q17 -5 27 -18.5t10 -28.5q0 -19 -15 -34q-9 -9 -18 -11.5t-39 -4.5l-41 -2l2 -181q2 -106 2 -120q0 -67 -7 -81q-5 -15 -18.5 -24.5t-27.5 -9.5t-27.5 11.5t-18.5 27.5q-6 17 -9 199l-4 179h-20q-32 0 -54.5 17t-22.5 41q0 12 13.5 28
t24.5 19z" />
    <glyph glyph-name="U" unicode="U" horiz-adv-x="387" 
d="M283 635q11 6 24 6q23 0 38 -13q10 -9 12.5 -21.5t5.5 -75.5l10 -230q4 -104 4 -117q0 -42 -5.5 -55.5t-21.5 -21.5q-18 -8 -24 -8t-24 10q-16 9 -23 32l-5 17.5t-3 11.5q-2 6 -18 -6q-32 -23 -71 -23q-35 0 -68 18q-32 18 -52.5 49.5t-34.5 85.5q-17 65 -17 238
q0 58 5 71q14 29 44 29q19 0 32 -12q15 -13 19.5 -36t4.5 -87q0 -141 18 -200q7 -24 20.5 -39t26.5 -15q12 0 19 12q29 43 45 233q11 131 39 147z" />
    <glyph glyph-name="V" unicode="V" horiz-adv-x="346" 
d="M36 618q12 6 22 6q11 0 30 -11q15 -10 21 -26.5t39 -130.5q29 -105 35 -105q4 0 16 58t25.5 121.5t21.5 73.5q15 19 38 19q34 0 47 -30q5 -10 5 -20q0 -14 -20 -114q-57 -284 -92 -318q-16 -15 -34 -15q-36 0 -57 46q-19 40 -71 210t-52 191q2 32 26 45z" />
    <glyph glyph-name="W" unicode="W" horiz-adv-x="533" 
d="M30 596q11 8 32 8q13 0 23 -5q20 -11 36 -81q43 -178 52 -178q2 0 15 42q19 65 36.5 89.5t44.5 24.5q38 0 63 -71q28 -77 30 -83q12 -32 16 -32q1 0 1 1q4 6 22.5 111t18.5 118q0 8 10 32q6 13 11.5 18t18.5 9q14 4 18 4q7 0 18 -6q27 -14 27 -49t-19 -136
q-13 -75 -34.5 -157.5t-32.5 -105.5q-15 -32 -54 -32q-20 0 -32 11q-8 7 -41.5 74.5t-33.5 75.5q0 9 -5 9q-4 0 -26 -56q-20 -53 -36.5 -72t-42.5 -19q-37 0 -58 48q-9 22 -37.5 122.5t-44.5 166.5q-15 63 -15 79q0 10 2 15q5 17 17 25z" />
    <glyph glyph-name="X" unicode="X" horiz-adv-x="393" 
d="M39 602q4 2 9 3.5t9 2.5t5 1h1q24 0 85 -90q46 -68 50 -68q5 0 29 38.5t53.5 76.5t49.5 38q36 0 48 -33q3 -11 3 -18q0 -18 -24 -53q-26 -40 -56.5 -90.5t-30.5 -55.5q0 -7 18 -30q35 -46 65 -94.5t30 -58.5q0 -34 -28 -49q-12 -6 -21 -6q-16 0 -34.5 18.5t-51.5 67.5
q-33 50 -38 50q-6 0 -43 -57q-41 -62 -50 -70q-13 -10 -29 -10q-20 0 -34 13q-17 14 -17 32q0 20 20 51q1 1 21 33.5t31 49.5l32 53l-33 47q-91 131 -96 150q-2 8 -2 12q0 14 8 27.5t21 18.5z" />
    <glyph glyph-name="Y" unicode="Y" horiz-adv-x="348" 
d="M34 612q13 7 26 7q16 0 27 -10q14 -10 54 -77q40 -66 44 -66t32 64q24 59 36 74q11 14 35 14q35 0 46 -27q4 -9 4 -20q0 -20 -33 -97q-35 -79 -80 -189q-45 -106 -61 -137.5t-29 -37.5q-12 -6 -25 -6q-20 0 -33 14t-13 36q0 20 35 99q34 79 34 85t-60 106
q-58 100 -62 115q-1 3 -1 9q0 30 24 44z" />
    <glyph glyph-name="Z" unicode="Z" horiz-adv-x="278" 
d="M43 635q13 5 87 5q72 0 92 -5q18 -5 32 -20.5t14 -30.5q0 -27 -65 -232q-39 -123 -42 -133q-2 -5 9 -6l17 -1q81 0 81 -54q0 -29 -27.5 -41.5t-90.5 -12.5q-74 0 -97 22q-15 14 -15 32q0 19 20 81q88 256 88 291q0 6 -55 8q-37 1 -46 4t-20 15q-15 17 -15 31
q0 12 10.5 27t22.5 20z" />
    <glyph glyph-name="a" unicode="a" horiz-adv-x="327" 
d="M162 329q-7 11 -18 11q-12 0 -21.5 -14t-9.5 -33q0 -6 2 -16q3 -12 11 -12q7 0 19 13q22 23 22 37q0 6 -5 14zM223 475q10 5 24 5q32 0 46 -32q9 -21 13 -112q4 -104 8 -135q3 -26 3 -37q0 -12 -6 -26q-15 -32 -44 -32q-22 0 -41 19q-15 15 -15 37q0 23 -3 26t-27 -12
t-33 -15t-9 -5t-12 -5q-39 0 -71 29q-41 37 -45 100q0 4 -0.5 10.5t-0.5 9.5q0 21 12 48q45 97 114 98h8q24 0 34 -3q8 -2 11 -2q9 0 15 13q10 17 19 21z" />
    <glyph glyph-name="b" unicode="b" horiz-adv-x="275" 
d="M153 247q7 16 7 33q0 22 -10 39t-26 17h-12l3 -55q4 -56 6 -58q1 -1 3 -1q5 0 15 8.5t14 16.5zM28 688q14 14 34 14q30 0 43 -27q8 -16 8 -85v-38l-1 -107l20 -3q60 -11 96 -56t36 -104q0 -44 -22 -87q-13 -23 -29.5 -37.5t-48.5 -29.5q-29 -13 -48 -13q-14 0 -24 1
q-39 3 -52 13q-7 6 -11 10.5t-7.5 16t-4.5 27.5t-2.5 48t-2 73.5t-1.5 106.5v4q0 29 -0.5 78t-0.5 68q0 94 2 102q4 13 16 25z" />
    <glyph glyph-name="c" unicode="c" horiz-adv-x="281" 
d="M125 445q21 8 49 8h12q25 -2 32.5 -5t19.5 -16q18 -20 18 -39q0 -17 -15 -32q-14 -14 -35 -14h-13h-6q-27 0 -41.5 -8t-22.5 -28q-6 -15 -6 -31q0 -30 22 -51q13 -12 21 -14.5t30 -2.5q81 0 81 -51q0 -54 -82 -54h-5q-68 2 -115 44t-58 112q-1 5 -1 16q0 59 41 115
q21 29 74 51z" />
    <glyph glyph-name="d" unicode="d" horiz-adv-x="275" 
d="M161 286l3 55h-14q-16 0 -25.5 -16.5t-9.5 -38.5q0 -41 25 -54q11 -7 15 -3q2 1 6 57zM187 702q11 6 22 6q16 0 31 -9t20 -22t5 -118q0 -81 -1 -139q-2 -242 -10 -260q-8 -19 -22 -27t-45 -11q-6 -1 -18 -1q-53 0 -97 34q-62 47 -62 131q0 66 42 112q33 36 85 47l25 6
v107q0 84 4.5 109.5t20.5 34.5z" />
    <glyph glyph-name="e" unicode="e" horiz-adv-x="321" 
d="M198 364q-11 11 -37 11q-9 0 -15 -3q-9 -6 -9 -9q0 -6 34 -6q30 0 30 3q0 1 -3 4zM107 468q23 12 44 12q3 0 9.5 -0.5t10.5 -0.5q101 -6 134 -93q6 -18 6 -47q0 -34 -8 -52q-10 -21 -29.5 -27.5t-74.5 -8.5q-63 -2 -66 -5q-2 -2 6 -7l15 -7q16 -8 33 -8q7 0 11 1
q36 6 54 6q20 0 29.5 -7t14.5 -25q2 -5 2 -14q0 -27 -31 -45.5t-77 -18.5h-14q-50 4 -91.5 31t-61.5 70q-13 30 -13 78q0 49 14 78q30 62 83 90z" />
    <glyph glyph-name="f" unicode="f" horiz-adv-x="232" 
d="M107 659q23 11 49 11q28 0 47 -14t19 -38q0 -7 -1 -11q-6 -33 -45 -37q-24 -4 -31 -8q-22 -12 -25 -58l-3 -26l34 -4q34 -4 48 -19q14 -16 14 -29q0 -50 -70 -57l-28 -4l-1 -36q0 -4 -0.5 -20t-0.5 -27q0 -10 0.5 -31.5t0.5 -31.5l2 -73l-18 -19q-18 -18 -35 -18
q-13 0 -27 11q-17 14 -21.5 39.5t-4.5 118.5v58q1 158 9.5 205t42.5 85q18 21 45 33z" />
    <glyph glyph-name="g" unicode="g" horiz-adv-x="353" 
d="M191 361q-14 11 -31 11q-15 0 -26 -8q-20 -13 -20 -50q0 -10 3 -19q9 -31 46 -31q15 0 24 8.5t17 30.5q6 17 6 27q0 16 -19 31zM130 473q17 5 29 5q6 0 33 -5q22 -4 35 -12q8 -4 13 -4q4 0 14 10q14 15 36 15q19 0 33 -14q8 -9 11 -22.5t7 -59.5q2 -34 2 -56
q0 -126 -17 -208q-17 -79 -61 -123t-104 -44q-49 0 -87.5 33.5t-38.5 74.5q0 15 8 31q13 25 40 25q31 0 45 -29q10 -19 17 -25.5t19 -6.5q22 0 41.5 32t19.5 67q0 10 -2 12t-9 0q-29 -8 -53 -8q-64 0 -107.5 42.5t-43.5 107.5v13q4 58 36 97t84 52z" />
    <glyph glyph-name="h" unicode="h" horiz-adv-x="301" 
d="M40 653q18 8 23 8q7 0 19 -6q22 -10 27 -32t6 -117l1 -117l37 1h5q54 0 92 -42q21 -25 29.5 -50t10.5 -71q0 -5 0.5 -13.5t0.5 -12.5q0 -54 -24 -77q-15 -13 -33 -13q-20 0 -34 14q-10 10 -11.5 20t-2.5 55q-2 53 -7.5 69t-21.5 16q-34 0 -40 -87q-3 -49 -14.5 -66.5
t-39.5 -17.5q-16 0 -30 13t-19 33q-4 13 -4 235q0 178 4 212.5t26 45.5z" />
    <glyph glyph-name="i" unicode="i" horiz-adv-x="137" 
d="M57 562q12 2 16 2q21 0 34.5 -14t13.5 -37t-15 -36q-18 -15 -33 -15q-11 0 -23 6q-30 15 -30 45q0 15 11.5 30t25.5 19zM49 429q7 3 15 3q23 0 39 -16q9 -10 11.5 -26t4.5 -89q4 -102 7 -115q2 -8 2 -12q0 -35 -27 -50q-15 -9 -26 -9q-10 0 -24 7q-25 13 -35 102
q-5 42 -5 90q0 99 38 115z" />
    <glyph glyph-name="j" unicode="j" horiz-adv-x="322" 
d="M231 605q11 9 31 9q22 0 35 -13t13 -32q0 -21 -18 -38q-17 -15 -29 -15q-22 0 -36.5 15t-14.5 35q0 23 19 39zM235 474q8 4 21 4q23 0 36 -11q12 -10 16 -29t4 -64q0 -37 -1 -61q-2 -94 -12 -148.5t-33 -104.5q-44 -97 -140 -98q-35 0 -54 10.5t-42 42.5q-19 28 -19 49
q0 19 17 35q19 16 32 16q17 0 41 -26t29 -26q9 0 24.5 16t22.5 34q27 63 27 217q0 83 5.5 108.5t25.5 35.5z" />
    <glyph glyph-name="k" unicode="k" horiz-adv-x="299" 
d="M37 669q11 7 24 7q16 0 34 -15l17 -15l3 -131l2 -130l38 45q31 38 43.5 47t31.5 9q21 0 34.5 -14.5t13.5 -34.5q0 -13 -5 -22q-10 -17 -39 -52q-32 -36 -32 -42q0 -5 33 -56q54 -83 54 -108q0 -6 -1 -9q-3 -16 -18 -27.5t-33 -11.5q-13 0 -29 14t-27 35q-14 27 -33.5 53
t-24.5 26q-6 0 -9 -52q-3 -50 -13 -64q-15 -20 -40 -20q-28 0 -43 26q-8 13 -8 116q0 82 1 145q2 247 7 259q5 14 19 22z" />
    <glyph glyph-name="l" unicode="l" horiz-adv-x="169" 
d="M38 656q10 9 28 9q19 0 34.5 -12.5t16.5 -31.5v-112v-104v-111q0 -65 1.5 -78.5t7.5 -15.5q14 -5 23.5 -18.5t9.5 -28.5q0 -23 -17 -36.5t-44 -13.5q-15 0 -30 4q-26 8 -38 22.5t-17 47.5q-3 19 -3 129q0 293 9 322q5 16 19 28z" />
    <glyph glyph-name="m" unicode="m" horiz-adv-x="482" 
d="M30 434q14 11 30 11q36 0 49 -37q4 -12 13 -12q3 0 17 2q12 2 18 2q40 0 76 -25l20 -13l18 12q28 19 66 19q62 0 101 -44q33 -38 34 -134v-16q0 -41 -12 -65q-17 -34 -45 -34q-6 0 -18 4q-20 8 -25.5 24t-5.5 70q0 59 -4.5 75.5t-20.5 16.5q-33 0 -46 -94
q-5 -31 -13.5 -45.5t-25.5 -20.5q-12 -4 -16 -4q-7 0 -19 6q-34 15 -35 84q0 40 -7 58q-6 18 -21 18q-19 0 -27 -17.5t-11 -67.5q-3 -41 -5.5 -51.5t-12.5 -18.5q-14 -12 -37 -12q-12 0 -24 5q-17 9 -22 35t-8 114q-1 23 -1 66q0 50 2 62q6 18 18 27z" />
    <glyph glyph-name="n" unicode="n" horiz-adv-x="323" 
d="M48 388q6 3 14 3q17 0 36 -14q11 -8 17 -8q3 0 29 7q21 6 29 6q5 0 31 -7q29 -9 57.5 -37t38.5 -56q12 -36 12 -84q0 -27 -4 -40q-6 -22 -21 -35t-33 -13q-17 0 -32 12q-10 9 -12.5 19t-4.5 52q-2 49 -9 65t-27 16t-31 -20.5t-18 -68.5q-7 -42 -17.5 -57t-35.5 -16h-2
q-29 0 -42 23.5t-13 78.5v7q1 91 8.5 124t29.5 43z" />
    <glyph glyph-name="o" unicode="o" horiz-adv-x="333" 
d="M202 293q-22 25 -40 25q-14 0 -26 -14q-20 -22 -20 -41q0 -20 21 -32q13 -7 29 -7q25 0 42 17q11 11 11 21q0 11 -17 31zM123 420q22 8 41 8q51 0 104 -53q55 -57 55 -114q0 -27 -12 -51q-21 -41 -62 -65.5t-86 -24.5q-26 0 -54 10q-43 16 -71 53t-28 78q0 11 1 16
q6 42 41 86t71 57z" />
    <glyph glyph-name="p" unicode="p" horiz-adv-x="278" 
d="M148 366q-12 16 -20 16q-5 0 -9 -28t-4 -63q0 -15 2 -18.5t10 -3.5q16 0 25.5 16t9.5 38q0 28 -14 43zM70 486q18 3 36 3q60 0 103.5 -36t56.5 -99q3 -12 3 -27q0 -43 -20 -83q-15 -29 -47 -51.5t-67 -29.5l-20 -3v-108q0 -86 -4.5 -110.5t-20.5 -33.5q-8 -5 -26 -5
q-20 0 -27 5q-16 9 -20 35.5t-6 134.5q-1 34 -1 115q0 98 2 131q3 73 7.5 103t15 42.5t35.5 16.5z" />
    <glyph glyph-name="q" unicode="q" horiz-adv-x="277" 
d="M162 346q-4 31 -12 31q-4 0 -12 -6q-21 -17 -21 -52q0 -22 9.5 -38.5t25.5 -16.5q8 0 10.5 4t2.5 21q0 30 -3 57zM123 478q18 5 44 5q52 0 69 -11q21 -14 25.5 -53.5t5.5 -237.5q1 -63 1 -144q0 -100 -10 -117q-15 -22 -42 -22q-28 0 -41 22q-7 11 -8.5 31.5t-1.5 94.5
v109l-26 5q-52 11 -87 50q-17 19 -29.5 51.5t-12.5 58.5q0 46 29 94q11 18 36 37.5t48 26.5z" />
    <glyph glyph-name="r" unicode="r" horiz-adv-x="285" 
d="M27 440q17 15 32 15q13 0 33 -13q14 -10 22 -10q1 0 7 2q9 5 35 11q14 3 20 3q10 0 32 -9q28 -12 47.5 -37t19.5 -48q0 -21 -16 -35q-14 -13 -31 -13q-20 0 -46 24l-14 13l-15 -16q-25 -26 -30 -102q-4 -48 -7.5 -62.5t-13.5 -24.5q-13 -13 -35 -13q-17 0 -28 8
q-18 13 -22.5 40.5t-5.5 128.5l-1 123z" />
    <glyph glyph-name="s" unicode="s" horiz-adv-x="257" 
d="M148 520q21 7 32 7q10 0 29 -7q14 -6 23 -20t9 -29q0 -6 -1 -9q-4 -15 -17 -26.5t-26 -11.5q-16 0 -29 -11t-13 -25q0 -15 36 -47q31 -28 43.5 -48.5t12.5 -46.5q0 -52 -39.5 -86t-104.5 -39q-9 -1 -23 -1q-17 0 -38 9q-21 10 -27 21q-5 12 -5 23q0 23 13 38
q8 10 17.5 12.5t42.5 4.5q61 4 61 15q0 5 -32 30q-63 50 -63 114q0 43 27.5 80t71.5 53z" />
    <glyph glyph-name="t" unicode="t" horiz-adv-x="356" 
d="M123 580q13 9 27 9q21 0 36.5 -16t15.5 -40q0 -1 -0.5 -4t-0.5 -5q-2 -11 0.5 -14.5t14.5 -5.5q43 -10 51 -36q3 -7 3 -16q0 -23 -20.5 -38.5t-51.5 -15.5h-17l-4 -45q-1 -10 -1 -28q0 -96 38 -101h3q17 0 24 64q7 63 34 74q13 5 20 5q14 0 28 -13q23 -20 23 -56
q0 -21 -4 -42q-15 -86 -54 -115q-34 -25 -72 -25q-33 0 -63 19t-49 54q-32 57 -32 140v15l1 51l-18 3q-18 4 -32 21q-13 14 -13 26q0 5 1 9q6 39 53 45q19 2 23 5.5t7 19.5q6 39 29 56z" />
    <glyph glyph-name="u" unicode="u" horiz-adv-x="323" 
d="M225 440q15 14 35 14q28 0 43 -30q9 -17 10 -146q0 -130 -9 -147q-14 -30 -46 -30q-30 0 -42 27q-8 17 -13 17t-20 -9q-24 -15 -51 -15q-33 0 -66 24q-56 40 -56 144q0 18 1 27q3 38 10.5 53.5t27.5 23.5q9 3 15 3t20 -6q21 -11 27 -27.5t6 -65.5q0 -70 15 -70q1 0 7 2
q22 8 52 128q11 43 17.5 58t16.5 25z" />
    <glyph glyph-name="v" unicode="v" horiz-adv-x="302" 
d="M245 431l2 1h3q13 0 27.5 -14.5t14.5 -31.5q0 -46 -69 -194q-35 -76 -72 -76q-11 0 -27 8q-38 20 -88 170l-26 78l9 20q13 30 42 30q8 0 17 -3q19 -6 28.5 -20t23.5 -59q18 -53 20 -53q4 0 20 40q21 57 32 77t23 23q4 1 11.5 2.5t8.5 1.5z" />
    <glyph glyph-name="w" unicode="w" horiz-adv-x="446" 
d="M36 409q15 9 26 9q10 0 24 -8q22 -13 39 -82q9 -40 14 -40q4 0 20 22q33 45 64 45q34 0 62 -52q18 -32 21 -32t16 43q12 47 19 57t21.5 17.5t27.5 7.5q1 0 3.5 -0.5t3.5 -0.5q12 -3 25.5 -18.5t13.5 -26.5q0 -15 -21.5 -96t-29.5 -99q-27 -54 -63 -54q-10 0 -23 5
q-17 8 -28 20t-29 44t-22 32q-6 0 -25 -33q-32 -53 -67 -53q-14 0 -29 9q-30 18 -51 95q-38 133 -38 149q0 4 4 14q8 18 22 26z" />
    <glyph glyph-name="x" unicode="x" horiz-adv-x="309" 
d="M38 428q10 6 24 6q18 0 30 -9q22 -16 50 -52q8 -9 20 6q13 15 13 22q0 10 17.5 21.5t32.5 11.5q16 0 23 -3.5t16 -17.5q8 -12 8 -28q0 -21 -15 -44q-29 -44 -29 -57q0 -2 2 -6q9 -9 37 -47q21 -27 26.5 -37.5t5.5 -24.5q-1 -19 -7 -28t-23 -18q-12 -6 -18 -6q-5 0 -18 6
q-21 11 -45 41q-22 27 -28 27q-7 0 -30 -31l-3 -3l-4 -6q-35 -46 -61 -46q-13 0 -26 7q-24 11 -24 42q0 7 1 10q5 18 39 62q35 46 35 52q0 4 -38 44q-27 27 -33 36t-6 22q0 32 28 48z" />
    <glyph glyph-name="y" unicode="y" horiz-adv-x="323" 
d="M36 469q5 4 18 4q14 0 29 -5q29 -12 29 -76q0 -93 38 -93q8 0 15 3q19 7 27 25.5t12 64.5q3 37 6 46.5t15 20.5q14 13 33 13q37 0 51 -47q4 -13 4 -68q0 -118 -12 -197q-3 -15 -6.5 -40.5t-4.5 -29.5q-3 -22 -17 -49t-31 -43q-40 -38 -94 -38q-64 0 -106 48
q-31 37 -31 72q0 31 26 44q9 5 22 5q26 0 44 -27q24 -37 44 -37h4q19 2 30.5 27t20.5 84l4 21h-46h-18q-28 0 -56 15q-51 29 -69 87q-6 18 -6 76q0 54 10 73q8 16 15 21z" />
    <glyph glyph-name="z" unicode="z" horiz-adv-x="237" 
d="M47 505q4 2 29 2q83 0 106 -10q27 -12 32 -41q0 -1 0.5 -3.5t0.5 -4.5q0 -25 -49 -152q-28 -70 -28 -74l30 -4q30 -4 44 -19q15 -17 15 -34q0 -27 -32 -44q-19 -10 -82 -10q-42 0 -54.5 2t-24.5 10q-19 12 -23 30q-1 4 -1 11q0 21 36 109q42 110 43 114q3 10 1 12t-12 2
q-26 0 -45.5 17.5t-19.5 40.5q0 12 11 26.5t23 19.5z" />
    <glyph glyph-name="nbsp" unicode="&#xa0;" 
 />
  </font>
</defs>
</svg>
