<?xml version="1.0" standalone="no"?>
<!DOCTYPE svg PUBLIC "-//W3C//DTD SVG 1.1//EN" "http://www.w3.org/Graphics/SVG/1.1/DTD/svg11.dtd" >
<svg xmlns="http://www.w3.org/2000/svg" xmlns:xlink="http://www.w3.org/1999/xlink" version="1.1">
<metadata>
Created by FontForge 20170731 at Wed Nov  3 23:13:27 2021
 By Aleksey,,,
Copyright (c) 2021 by Khurasan. All rights reserved.
</metadata>
<defs>
<font id="HeyHaters" horiz-adv-x="370" >
  <font-face 
    font-family="Hey Haters"
    font-weight="400"
    font-stretch="normal"
    units-per-em="1000"
    panose-1="0 0 0 0 0 0 0 0 0 0"
    ascent="800"
    descent="-200"
    x-height="651.5"
    cap-height="827"
    bbox="26.2593 -93.9091 826 827"
    underline-thickness="50"
    underline-position="-150"
    unicode-range="U+000D-20AC"
  />
<missing-glyph 
 />
    <glyph glyph-name=".notdef" 
 />
    <glyph glyph-name=".null" horiz-adv-x="0" 
 />
    <glyph glyph-name="nonmarkingreturn" unicode="&#xd;" 
 />
    <glyph glyph-name="NULL" horiz-adv-x="0" 
 />
    <glyph glyph-name="NULL" horiz-adv-x="0" 
 />
    <glyph glyph-name="space" unicode=" " 
 />
    <glyph glyph-name="exclam" unicode="!" horiz-adv-x="262" 
d="M209 328q-2 -25 -5 -48.5t-10 -42.5q-8 -23 -21.5 -35t-34.5 -8q-25 3 -41.5 22.5t-25.5 49.5q-11 33 -15 74.5t-4.5 81t1 72.5t1.5 50q1 28 3 57t5 57q0 9 1 16.5t3 17.5q6 21 21.5 33.5t37.5 13.5q20 2 38 -7.5t25 -29.5q8 -20 11 -40.5t6 -40.5q6 -78 6.5 -150
t-2.5 -143zM138 140q32 -1 55 -21t22 -50q0 -29 -24 -50t-57 -20q-31 2 -53 22.5t-22 49.5q2 29 24.5 49t54.5 20z" />
    <glyph glyph-name="quotedbl" unicode="&#x22;" horiz-adv-x="346" 
d="M103 539q-20 -6 -37 6t-15 35q3 31 6.5 61.5t8.5 60.5q2 17 14 28t29 11q15 0 26 -11t16 -28q4 -16 3 -41.5t-6.5 -50.5t-16.5 -45.5t-28 -25.5zM239 539q-20 -6 -37 6t-15 35q3 31 6.5 61.5t8.5 60.5q2 17 14 28t29 11q15 0 26 -11t16 -28q4 -16 3 -41.5t-6.5 -50.5
t-16.5 -45.5t-28 -25.5z" />
    <glyph glyph-name="numbersign" unicode="#" horiz-adv-x="666" 
d="M306 433q21 1 39 1.5t38 1.5q5 14 8 26.5t8 25.5q8 26 16 51t17 50q6 20 22 36q29 30 65 15q40 -17 39 -55q-1 -23 -5 -46.5t-7 -46.5l-4 -18t-5 -18q8 -5 15.5 -6.5t13.5 -4.5q9 -7 19.5 -13.5t17.5 -15.5q15 -22 6 -45t-35 -29q-14 -3 -29 -4.5t-32 -3.5l-4 -16t-4 -19
q11 -1 21 -1.5t21 -0.5q26 0 43 -17q12 -16 10 -34.5t-19 -31.5q-11 -8 -24.5 -12t-27.5 -8q-11 -3 -22.5 -4.5t-22.5 -3.5q-10 -29 -19.5 -56.5t-20.5 -54.5q-2 -8 -6 -14.5t-8 -14.5q-24 -35 -67 -26q-20 4 -30 17t-15 32q-5 29 -4.5 58t10.5 59q-29 4 -51 6
q-10 -20 -18.5 -38t-16.5 -37q-21 -43 -67 -39q-49 6 -61 51q-5 15 -7 30t-5 32q-8 3 -15.5 7.5t-13 10.5t-8 14t-0.5 19q4 23 22 29.5t39 9.5q4 24 12 51q-9 2 -16 2.5t-14 2.5q-8 2 -17.5 4.5t-16.5 7.5q-11 8 -15 19.5t-2 23t9.5 21t20.5 14.5q9 4 18 4.5t18 1.5h40
q3 11 5.5 22t4.5 22q7 26 14.5 51t15.5 50q7 31 41 42q26 10 49.5 -3.5t28.5 -41.5q2 -20 1 -41t-3 -42q-1 -14 -4.5 -28t-5.5 -31zM358 333h-70q-2 -12 -2.5 -23.5t-2.5 -23.5q18 2 34.5 2.5t31.5 2.5q2 11 4.5 20.5t4.5 21.5z" />
    <glyph glyph-name="dollar" unicode="$" horiz-adv-x="420" 
d="M131 605q-2 14 -4 29.5t1 29.5q3 20 17.5 31.5t31.5 10.5q20 -1 32 -13.5t14 -32.5v-33l18 -2t17 -3q10 -3 20.5 -6.5t19.5 -8.5q28 -19 30.5 -49.5t-23.5 -53.5q-10 -9 -23 -16t-24 -15q-25 -17 -36 -28t-9.5 -21t14 -22.5t34.5 -32.5q28 -22 50 -48t42 -57
q15 -25 18 -49.5t-4.5 -46.5t-26 -40t-45.5 -28q-11 -5 -23 -7.5t-26 -6.5v-49q0 -25 -11 -38.5t-29 -15.5q-20 -2 -35.5 9t-20.5 34q-4 11 -5 23.5t-3 26.5q-5 1 -10.5 1t-10.5 1q-35 3 -56 23q-26 23 -24.5 54t27.5 51q17 14 37 17.5t41 -0.5q59 -12 67 2t-37 54
q-29 26 -55.5 48.5t-48.5 50.5q-23 27 -31.5 56t-4 57t21.5 52.5t46 44.5q7 5 13.5 8.5t13.5 8.5z" />
    <glyph glyph-name="percent" unicode="%" horiz-adv-x="559" 
d="M168 32q-28 3 -40 17.5t-13.5 34t4.5 40t14 37.5q40 85 80 168t82 168q11 23 22.5 46.5t24.5 46.5q9 19 27 38q11 11 26.5 13t27.5 -6q27 -18 18 -51q-7 -24 -19 -44q-52 -113 -96.5 -212t-76.5 -201q-6 -15 -12 -32t-15 -31.5t-22 -23.5t-32 -8zM136 483
q-38 0 -63.5 24.5t-27.5 59.5q0 18 7.5 34t20 28t29 18.5t35.5 5.5q38 0 64 -25t26 -61q-1 -17 -8 -32.5t-19 -27t-28.5 -18t-35.5 -6.5zM419 41q-38 0 -63.5 24.5t-27.5 59.5q0 18 7.5 34t20 28t29 18.5t35.5 5.5q38 0 64 -25t26 -61q-1 -17 -8 -32.5t-19 -27t-28.5 -18
t-35.5 -6.5z" />
    <glyph glyph-name="ampersand" unicode="&#x26;" horiz-adv-x="631" 
d="M418 258q6 16 10 28.5t9 25.5q3 8 6 16.5t8 15.5q11 16 29 23t37 1q17 -5 28 -19t9 -34q-5 -39 -14.5 -74.5t-22.5 -71.5q7 -8 15 -16t15 -18q10 -11 18.5 -23t13.5 -25q9 -22 -3 -39.5t-36 -20.5q-26 -3 -52 12q-11 8 -22.5 14.5t-23.5 14.5q-14 -9 -28.5 -17.5
t-28.5 -16.5q-45 -23 -91 -29t-96 3q-38 7 -68 26.5t-50 46.5t-30 58.5t-8 61.5q1 29 8 52t18 42.5t25 38t29 39.5q-41 45 -51.5 97.5t3 101t48 88t83.5 59.5q81 34 145 32.5t105.5 -28t60 -71.5t9.5 -97.5t-46.5 -107t-108.5 -99.5q-7 -5 -14 -9.5t-15 -9.5
q19 -19 37.5 -36t39.5 -35zM338 590q-26 5 -54.5 -3.5t-47.5 -25.5t-22.5 -41.5t20.5 -51.5q24 13 54 32.5t49 39.5q15 16 18 29.5t-17 20.5zM337 151q-23 22 -45 41t-44 39q-24 -35 -23.5 -57.5t16 -32t42 -7t54.5 16.5z" />
    <glyph glyph-name="quotesingle" unicode="'" horiz-adv-x="214" 
d="M103 539q-20 -6 -37 6t-15 35q3 31 6.5 61.5t8.5 60.5q2 17 14 28t29 11q15 0 26 -11t16 -28q4 -16 3 -41.5t-6.5 -50.5t-16.5 -45.5t-28 -25.5z" />
    <glyph glyph-name="parenleft" unicode="(" horiz-adv-x="490" 
d="M158 672q20 24 43.5 45t52.5 38q15 8 31.5 14t33.5 10q24 5 46.5 -3t35.5 -24q23 -31 -7 -65q-4 -3 -8.5 -7.5t-7.5 -9.5q-35 -31 -63 -66t-48 -74q-37 -75 -38.5 -158.5t23.5 -155.5q15 -41 43.5 -72t73.5 -52q13 -5 24.5 -11.5t21.5 -14.5q31 -20 31 -48.5t-31 -47.5
q-25 -14 -50.5 -17t-54.5 2q-47 11 -82.5 32.5t-67.5 49.5q-47 40 -75 91t-40 107t-9 115.5t18.5 116.5t42 109.5t61.5 95.5z" />
    <glyph glyph-name="parenright" unicode=")" horiz-adv-x="490" 
d="M322 672q35 -43 61.5 -95.5t42 -109.5t18.5 -116.5t-9 -115.5t-40 -107t-75 -91q-32 -28 -67.5 -49.5t-82.5 -32.5q-29 -5 -54.5 -2t-50.5 17q-15 9 -23 21.5t-8 25.5t7.5 26t23.5 23q10 8 21.5 14.5t24.5 11.5q45 21 73.5 52t43.5 72q25 72 23.5 155.5t-38.5 158.5
q-20 39 -48 74t-63 66q-3 5 -7.5 9.5t-8.5 7.5q-30 34 -7 65q13 16 35.5 24t46.5 3q17 -4 33.5 -10t31.5 -14q29 -17 52.5 -38t43.5 -45z" />
    <glyph glyph-name="asterisk" unicode="*" horiz-adv-x="381" 
d="M230 700q12 7 22 12t20 9q16 7 30.5 2.5t21.5 -17.5q6 -14 2 -27t-17 -24q-6 -4 -12.5 -8t-14.5 -9q11 -5 19.5 -9t16.5 -9q31 -22 22 -47q-5 -16 -19 -22.5t-32 -1.5q-14 3 -28.5 8.5t-28.5 12.5q-2 -11 -2 -21.5t-2.5 -20t-9.5 -16t-22 -7.5q-17 -2 -27 8.5t-18 38.5
l-12 -10l-12 -10q-8 -4 -15.5 -7.5t-15.5 -5.5q-12 -2 -21.5 4t-14.5 16q-10 23 5 41q9 9 19 17.5t21 19.5q-8 4 -14 6.5t-13 4.5q-14 7 -21 18t-3 22q5 28 38 27q14 -2 28 -5.5t31 -6.5q0 8 0.5 14.5t0.5 14.5q1 35 30 40q29 4 42 -30q2 -5 3 -9.5t3 -12.5z" />
    <glyph glyph-name="plus" unicode="+" horiz-adv-x="344" 
d="M119 253q-12 0 -22.5 -0.5t-20.5 0.5q-18 1 -30 11.5t-13 25.5q-2 15 8 28t28 17q6 2 12.5 2.5t12.5 1.5q7 1 12 1.5t12 1.5v34q1 23 12 36t29 15q19 2 33.5 -8t19.5 -33q2 -8 2.5 -15.5t1.5 -17.5q6 0 12.5 -0.5t13.5 -0.5q5 -1 11.5 -0.5t12.5 -1.5q37 -11 34 -44
q-3 -29 -40 -34q-10 -1 -19.5 -1t-20.5 -1q-3 -12 -5 -23t-5 -22q-5 -13 -14 -20.5t-20 -10t-22 1.5t-20 14q-4 5 -6 11l-4 12q-2 5 -2.5 10t-2.5 10z" />
    <glyph glyph-name="comma" unicode="," horiz-adv-x="261" 
d="M193 128q-1 -23 -8.5 -47t-20.5 -44t-30.5 -33.5t-36.5 -14.5q-12 -1 -22.5 3.5t-17.5 12t-9 17t3 19.5q8 18 16.5 45t17.5 67q3 17 21 25.5t37.5 6.5t35 -16t14.5 -41z" />
    <glyph glyph-name="hyphen" unicode="-" horiz-adv-x="303" 
d="M207 355q16 3 28.5 -4.5t16.5 -21.5t-3 -27t-24 -18q-15 -6 -37 -9t-45.5 -4t-45 1t-35.5 7q-27 11 -24 39q2 12 11.5 21t24.5 9q36 1 68 3t65 4z" />
    <glyph glyph-name="period" unicode="." horiz-adv-x="247" 
d="M118 27q-28 0 -47.5 19t-18.5 46q2 25 21.5 42.5t46.5 17.5t47 -18.5t20 -44.5q-1 -26 -21 -45t-48 -17z" />
    <glyph glyph-name="slash" unicode="/" horiz-adv-x="382" 
d="M59 229q42 117 82 226.5t81 218.5q2 8 6.5 15.5t8.5 13.5q12 16 29 21.5t37 0.5q17 -5 29 -19.5t14 -34.5q2 -19 -1.5 -53.5t-11.5 -79.5t-20.5 -97.5t-27.5 -107.5t-33 -109.5t-36 -102.5q-8 -22 -16.5 -44.5t-21 -40.5t-30 -28t-44.5 -6q-42 6 -57.5 34.5t-15 64
t10 71.5t17.5 57z" />
    <glyph glyph-name="zero" unicode="0" horiz-adv-x="509" 
d="M250 29q-32 -2 -61 7t-53.5 27.5t-43.5 45t-31 59.5q-13 34 -18 81t-3.5 95t8 92.5t16.5 74.5q31 69 81 108t110 44q32 2 64 -6t60 -26.5t48 -49t28 -73.5t10.5 -89.5t0.5 -90.5q-3 -57 -15.5 -109.5t-38 -93.5t-65.5 -66.5t-97 -29.5zM211 450q-6 -95 -9 -186
q0 -14 2.5 -33.5t10 -36.5t20.5 -27.5t33 -7.5q14 2 22.5 18t13.5 36q6 25 9.5 60.5t4.5 72t-1 70.5t-7 56q-7 32 -22 43.5t-31 7t-29 -23.5t-17 -49z" />
    <glyph glyph-name="one" unicode="1" horiz-adv-x="318" 
d="M102 478q-6 0 -11.5 -0.5t-11.5 -0.5q-25 1 -36.5 19t-1.5 41q6 14 16 24q18 18 29.5 38t21.5 43q6 16 19.5 27t29.5 16t33 4.5t31 -8.5t23 -21t11 -30q2 -15 3.5 -30t1.5 -30q2 -69 4 -136.5t4 -135.5q1 -45 -0.5 -88.5t-2.5 -89.5q0 -25 -12 -47t-30.5 -35t-42 -15
t-45.5 12q-46 31 -45 85q1 39 2.5 78.5t3.5 79.5q2 46 4 91.5t4 90.5q0 5 -0.5 9t-1.5 9z" />
    <glyph glyph-name="two" unicode="2" horiz-adv-x="428" 
d="M234 124q11 1 20 1.5t18 0.5q15 -1 29 -1t27 -3q22 -4 34 -17.5t12 -30.5t-11 -29.5t-34 -15.5l-96 -10t-96 -4q-29 1 -51 13.5t-35 32.5t-16.5 46t4.5 55q9 32 25 61t36 56q24 35 48 69t47 69q12 19 15 41.5t-3.5 42t-22 32.5t-39.5 15h-20h-10t-11 1q-17 2 -31 11.5
t-19 29.5q-4 17 3.5 30t21.5 24q18 14 39 23t45 11q58 3 104.5 -22t74 -66.5t34.5 -93.5t-12 -103q-15 -40 -33.5 -78.5t-35.5 -76.5q-14 -29 -29 -57t-32 -57z" />
    <glyph glyph-name="three" unicode="3" horiz-adv-x="425" 
d="M294 368q47 -41 66.5 -83.5t17.5 -83t-22.5 -75.5t-55.5 -61.5t-80.5 -41t-96.5 -13.5q-20 1 -37.5 5.5t-31.5 15.5q-19 16 -22 32.5t5.5 30.5t25 24t35.5 13q36 8 61 25t32.5 40t-3.5 50.5t-47 57.5q-20 10 -30.5 25t-11 30.5t9.5 31.5t30 29q14 10 31.5 28.5t26.5 38
t4.5 36.5t-35.5 25q-5 1 -13 2t-18 2t-19 2.5t-15 3.5q-8 2 -15.5 5t-13.5 7q-15 8 -23 20t-4 29t16.5 27t31.5 14q35 5 69 4.5t68 -5.5q68 -14 104 -58.5t30 -107.5q-4 -41 -25 -69t-45 -56z" />
    <glyph glyph-name="four" unicode="4" horiz-adv-x="508" 
d="M213 302h76q2 14 2.5 26.5t2.5 23.5q1 31 3.5 59.5t12.5 56.5q8 22 25.5 32t37.5 9q44 -3 58 -44q4 -13 7 -26.5t4 -26.5q4 -54 7.5 -106.5t6.5 -105.5q3 -48 3 -98q-1 -11 -3 -23t-7 -23q-12 -28 -35 -41.5t-52 -11.5q-26 2 -47 21t-27 48q-3 12 -3.5 25t-0.5 26
q-1 17 -0.5 33.5t0.5 35.5q-29 -2 -56 -3t-53 -3q-11 0 -20 -0.5t-18 -0.5q-29 1 -47 13.5t-28 31.5t-14 42t-4 46l15 258q1 9 2 17.5t3 16.5q7 23 23 35t39 13q22 1 39 -10.5t24 -33.5q5 -14 8 -30t4 -31q4 -59 6 -117.5t5 -116.5q0 -4 0.5 -8t0.5 -9z" />
    <glyph glyph-name="five" unicode="5" horiz-adv-x="509" 
d="M202 557q4 -20 -0.5 -38t-1.5 -35q25 -5 49.5 -9t48.5 -9.5t45.5 -14.5t40.5 -25q35 -30 54.5 -74.5t21.5 -92.5t-13 -95.5t-49 -83.5q-24 -26 -64 -42t-84 -22t-85.5 -1t-69.5 22q-20 13 -29 31t-8 36.5t13 34.5t34 27q29 14 60 17q46 4 74 29.5t34.5 56t-10.5 56.5
t-61 31q-14 2 -26.5 2t-26.5 2q-48 1 -75.5 22.5t-29.5 62.5q-2 33 0 66.5t5 68.5q3 25 18 41.5t35.5 27t43.5 15t41 4.5q36 2 72.5 3.5t73.5 1.5q11 0 24 -3.5t24 -10.5q15 -7 22.5 -18.5t7.5 -23.5t-7 -24t-22 -21q-20 -10 -42.5 -12.5t-46 -2t-47 1.5t-44.5 -2z" />
    <glyph glyph-name="six" unicode="6" horiz-adv-x="501" 
d="M234 445q53 6 94.5 -7.5t70 -40t44 -62.5t18.5 -76.5t-7.5 -82t-33.5 -77.5q-24 -36 -59 -55.5t-74.5 -24.5t-79.5 3t-72 25q-49 26 -72.5 71.5t-29.5 100.5t2.5 115.5t25 118t37.5 107t40 83.5q20 36 65 33q25 -2 42.5 -17.5t18.5 -38.5q0 -18 -3 -35l-6 -34
q-7 -35 -13 -59t-8 -47zM217 306q-3 -23 -7.5 -47.5t-4.5 -46.5q0 -38 19 -52.5t40 -9.5t36 28t7 61q-4 17 -12 32t-20 25t-27 13t-31 -3z" />
    <glyph glyph-name="seven" unicode="7" horiz-adv-x="480" 
d="M172 226q-9 1 -17 1t-15 1q-20 2 -33.5 14.5t-15.5 29.5q-1 16 10 30.5t31 18.5q14 2 28.5 2t30.5 1q14 50 27 100t28 102q-35 5 -68.5 5.5t-66.5 4.5q-9 1 -18 3.5t-17 6.5q-17 8 -27 21t-10 33q0 23 14.5 37.5t35.5 23t44 12t39 5.5q38 4 75.5 3t75.5 -8
q58 -10 87.5 -46.5t24.5 -96.5q-3 -24 -9 -50q-26 -91 -53.5 -190.5t-53.5 -191.5q-7 -23 -19 -41.5t-32 -32.5q-26 -20 -57 -15t-50 32q-16 22 -18.5 46t5.5 50q5 17 11.5 43t12.5 46z" />
    <glyph glyph-name="eight" unicode="8" horiz-adv-x="495" 
d="M398 347q44 -64 50.5 -127.5t-17.5 -113.5t-75 -80t-121 -27q-57 2 -95.5 23.5t-62.5 54.5t-33.5 75t-7.5 85.5t14.5 86t33.5 76.5q11 17 1 41q-15 38 -11 73.5t21 66.5t44.5 56t59.5 41q37 16 77.5 16t75 -15t60 -43.5t33.5 -68.5q4 -26 3 -55.5t-7.5 -59t-17 -57
t-25.5 -48.5zM270 428q5 18 9.5 35.5t6.5 34.5q3 26 -5 46.5t-22 28t-29.5 -1.5t-27.5 -40q-8 -21 -3 -37.5t16.5 -29t26.5 -21.5t28 -15zM228 323q-5 -18 -12 -40t-10 -44q-4 -25 1.5 -43t16 -28.5t24 -13t24.5 3.5q19 9 23.5 33.5t-3 51t-24.5 49.5t-40 31z" />
    <glyph glyph-name="nine" unicode="9" horiz-adv-x="501" 
d="M268 280q-50 -25 -96 -18t-79 35.5t-47.5 73.5t-1.5 95q10 38 33.5 73.5t53.5 64.5q24 23 55.5 41.5t65.5 27.5t68 8t64 -17q15 -9 29 -16q41 -10 49 -51q2 -11 2.5 -22.5t-0.5 -24.5q-4 -82 -8.5 -163.5t-8.5 -164.5q-2 -28 -2.5 -55t-2.5 -55v-19t-2 -18
q-6 -34 -31.5 -54.5t-60.5 -19.5q-34 1 -57 23t-24 54q-1 44 0 87t2 88q-1 6 -0.5 12.5t-0.5 14.5zM227 510q-17 -14 -30 -34t-18 -44q-7 -32 -0.5 -50t19.5 -23q16 -6 31 7.5t27 35t20.5 43.5t12.5 32q8 19 6.5 32t-10.5 18.5t-24 1.5t-34 -19z" />
    <glyph glyph-name="colon" unicode=":" horiz-adv-x="283" 
d="M149 341q-28 0 -47.5 19t-18.5 46q2 25 21.5 42.5t46.5 17.5t47 -18.5t20 -44.5q-1 -26 -21 -45t-48 -17zM149 101q-28 0 -47.5 19t-18.5 46q2 25 21.5 42.5t46.5 17.5t47 -18.5t20 -44.5q-1 -26 -21 -45t-48 -17z" />
    <glyph glyph-name="semicolon" unicode=";" horiz-adv-x="283" 
d="M193 211q-1 -23 -8.5 -47t-20.5 -44t-30.5 -33.5t-36.5 -14.5q-12 -1 -22.5 3.5t-17.5 12t-9 17t3 19.5q8 18 16.5 45t17.5 67q3 17 21 25.5t37.5 6.5t35 -16t14.5 -41zM149 341q-28 0 -47.5 19t-18.5 46q2 25 21.5 42.5t46.5 17.5t47 -18.5t20 -44.5q-1 -26 -21 -45
t-48 -17z" />
    <glyph glyph-name="less" unicode="&#x3c;" horiz-adv-x="371" 
d="M194 308q14 -8 27 -15t24 -14q14 -8 27 -16.5t26 -18.5q33 -29 17 -61q-8 -17 -24 -25.5t-35 -3.5q-18 4 -35 11t-33 17q-29 17 -55.5 36.5t-53.5 37.5q-27 20 -34 47t9 56q29 51 65.5 95t83.5 79q8 6 15.5 10t15.5 7q42 11 69 -22q13 -15 14 -32.5t-8 -34.5
q-10 -17 -21.5 -32.5t-22.5 -31.5q-8 -11 -18.5 -21t-18.5 -22q-8 -10 -16.5 -21.5t-17.5 -24.5z" />
    <glyph glyph-name="equal" unicode="=" horiz-adv-x="284" 
d="M79 203q-17 1 -29 10t-14 24q-2 14 7.5 26.5t26.5 15.5q35 8 69.5 9.5t69.5 -0.5q28 -2 35 -30q3 -12 -1 -24t-17 -20q-17 -10 -35 -11q-29 -3 -57 -2.5t-55 2.5zM216 384q14 -5 20 -16.5t3 -25.5q-2 -13 -10 -22t-22 -9q-32 -1 -66.5 -4.5t-66.5 0.5q-14 2 -21.5 13.5
t-7.5 23.5q-1 14 7.5 24.5t23.5 14.5q12 3 31 5t39.5 2t39.5 -1.5t30 -4.5z" />
    <glyph glyph-name="greater" unicode="&#x3e;" horiz-adv-x="371" 
d="M170 308q-9 13 -17.5 24.5t-16.5 21.5q-8 12 -18.5 22t-18.5 21q-11 16 -22.5 31.5t-21.5 32.5q-9 17 -8 34.5t14 32.5q27 33 69 22q8 -3 15.5 -7t15.5 -10q47 -35 83.5 -79t65.5 -95q16 -29 9 -56t-34 -47q-27 -18 -53.5 -37.5t-55.5 -36.5q-16 -10 -33 -17t-35 -11
q-19 -5 -35 3.5t-24 25.5q-16 32 17 61q13 10 26 18.5t27 16.5q11 7 24 14t27 15z" />
    <glyph glyph-name="question" unicode="?" horiz-adv-x="524" 
d="M45 623q-11 20 -5 40t27 38q19 15 41 24t46 15q47 12 99 9.5t98 -19t80 -47.5t44 -76q6 -26 1.5 -52.5t-17 -52.5t-32 -50t-44.5 -44q-42 -35 -68.5 -69t-39.5 -80q-13 -45 -44 -62.5t-61.5 -12.5t-52.5 31t-17 69q5 47 24 82t45 63.5t55.5 52t56.5 47.5q19 25 12 41
t-26.5 24t-45 9.5t-44.5 -2.5q-17 -3 -36 -6.5t-37.5 -2.5t-34 7.5t-24.5 23.5zM170 -6q-32 0 -54.5 21t-22.5 53q0 29 23 50.5t54 21.5q34 0 57 -21t23 -51q0 -32 -22.5 -53t-57.5 -21z" />
    <glyph glyph-name="at" unicode="@" horiz-adv-x="795" 
d="M483 239q-25 -26 -56.5 -33t-67.5 1q-21 6 -38.5 19t-29.5 30.5t-17.5 39t-2.5 43.5q4 31 22 57.5t45 45t60 27.5t68 5q17 -1 30 -8t26 -18q33 -33 31 -78q-2 -40 7 -51.5t22 -5.5t25 24.5t15 39.5q4 28 -3.5 56t-23.5 51.5t-39.5 40.5t-51.5 23q-51 12 -101 4t-94 -40
q-30 -21 -52.5 -54.5t-33 -72.5t-9 -78.5t19.5 -71.5q28 -48 69 -74t102 -24q26 1 52.5 2t53.5 1q20 0 41 -0.5t41 -2.5q30 -6 46.5 -23t16.5 -38t-13.5 -34.5t-32 -21.5t-39.5 -11t-36 -4q-34 -2 -68.5 -3.5t-69.5 -0.5q-73 2 -134.5 25.5t-111.5 76.5q-62 70 -83.5 146.5
t-8.5 150t57.5 139.5t115.5 114q46 30 97.5 44t102.5 13t99.5 -16t88 -44t68.5 -71t41 -97q14 -61 0.5 -117t-47.5 -93.5t-85.5 -49t-113.5 16.5zM466 368q-18 10 -40 2.5t-36.5 -22.5t-15.5 -34t23 -32q11 -3 22.5 8t21 26t16.5 30t9 22z" />
    <glyph glyph-name="A" unicode="A" horiz-adv-x="653" 
d="M405 94q-57 -4 -112.5 -6t-111.5 -16q-4 -15 -7.5 -30t-8.5 -30q-5 -14 -9 -27t-10 -27q-17 -39 -56 -33q-18 2 -30.5 15.5t-14.5 33.5q-3 31 0 63q11 95 21.5 173.5t25.5 151t36 144t53 152.5q23 60 66 86t117 19q102 -9 137 -106q13 -38 23 -76.5t20 -77.5
q20 -86 40 -171.5t40 -172.5q14 -63 -13 -119q-19 -38 -54.5 -50.5t-73.5 7.5q-23 11 -39 30t-27 42q-3 5 -5.5 11t-6.5 14zM208 187q47 6 91 11.5t90 10.5q-5 29 -9.5 58.5t-9.5 58.5t-10 57.5t-11 57.5t-10.5 57.5t-15.5 56.5q-41 -89 -67.5 -180.5t-47.5 -187.5z" />
    <glyph glyph-name="B" unicode="B" horiz-adv-x="658" 
d="M480 364q12 -8 19 -11q40 -20 68 -57.5t38 -82t-0.5 -91.5t-46.5 -85q-33 -38 -78 -63q-80 -45 -166 -59t-179 -6q-59 4 -70 60q-4 21 -5 42.5t-1 43.5q1 87 2.5 172t2.5 172q0 45 -1.5 90.5t-3.5 90.5q0 16 -3 31.5t-5 31.5q-1 6 -1.5 12.5t-1.5 12.5q-4 36 33 55
q22 12 46 17t49 8q31 5 62 8.5t62 5.5q50 4 97 -2t92 -25q37 -15 63.5 -39.5t44.5 -56.5q16 -29 17 -58.5t-10 -59.5q-15 -41 -40.5 -74.5t-59.5 -62.5q-6 -5 -11.5 -10t-12.5 -10zM234 636q5 -59 8.5 -115.5t8.5 -114.5q3 1 6 1t5 2q33 17 63.5 36t56.5 45q16 17 29 35.5
t26 38.5q8 12 5 24t-15 22l-16 12t-18 9q-39 11 -78.5 13.5t-80.5 -8.5zM251 85q82 15 144 63q18 14 19.5 32t-6.5 36q-7 16 -22.5 25t-37.5 7q-24 -2 -47.5 -5.5t-49.5 -7.5v-150z" />
    <glyph glyph-name="C" unicode="C" horiz-adv-x="586" 
d="M121 566q73 130 221 157q85 15 158 -35q22 -15 37 -35t17 -48q1 -15 -3 -28.5t-13 -23t-21.5 -14t-26.5 -2.5q-9 2 -18 6.5t-17 10.5q-47 41 -99 8q-17 -11 -32 -23t-27 -26q-92 -116 -83 -263q2 -23 10.5 -42.5t22.5 -38.5q18 -24 39.5 -34.5t44.5 -11.5t44.5 7.5
t39.5 22.5q10 8 19.5 15t20.5 13q23 11 45 7.5t37 -18.5q15 -17 15.5 -40t-13.5 -45q-16 -24 -37 -41.5t-47 -30.5q-91 -44 -188 -28q-39 7 -75 27t-64.5 49.5t-49 67t-28.5 78.5q-9 43 -7 90.5t12.5 95t27.5 92t38 81.5z" />
    <glyph glyph-name="D" unicode="D" horiz-adv-x="655" 
d="M61 631q0 41 14.5 66t56.5 31q65 9 128.5 11t128.5 -15q141 -36 179 -158q14 -45 21.5 -90t12.5 -91q2 -17 3 -35t3 -36q4 -32 1.5 -64.5t-7.5 -64.5q-15 -79 -71 -143q-66 -75 -173 -84q-21 -1 -49.5 -4t-60.5 -4.5t-64 0.5t-58.5 11t-45.5 27.5t-25 49.5q-2 6 -2 12.5
v12.5q-2 143 1 284t7 284zM244 113q36 -7 73.5 2.5t69.5 23.5q7 2 12.5 7.5l10.5 10.5q24 30 33 78t7.5 100.5t-11.5 101.5t-25 80q-15 28 -47 43q-33 14 -66 11.5t-66 -4.5q2 -116 4.5 -228.5t4.5 -225.5z" />
    <glyph glyph-name="E" unicode="E" horiz-adv-x="512" 
d="M237 215q2 -32 3 -62t2 -59q17 0 32.5 -0.5t30.5 0.5t41 1.5t41 0.5q24 0 43.5 -11.5t29.5 -28.5t9 -38t-17 -40q-25 -29 -62 -31q-40 -3 -90.5 -4.5t-91.5 -1.5q-22 0 -44 5t-40 15t-30.5 25.5t-15.5 36.5q-12 73 -14.5 158t-1.5 170.5t2 166.5t-4 147q-2 21 8.5 37
t26.5 26.5t36 15.5t38 3q27 -3 66 -3h79t77.5 -2t61.5 -9q18 -5 25.5 -19.5t5.5 -32t-12.5 -33.5t-27.5 -25q-29 -15 -62 -17q-28 0 -55.5 2.5t-55.5 4.5q-12 1 -24.5 2t-26.5 2q2 -79 4.5 -155.5t4.5 -154.5q11 2 18.5 2t15.5 1q26 2 51 4t51 4q10 1 22 -4q35 -13 33 -45
q-1 -15 -11 -26.5t-26 -14.5q-14 -2 -28.5 -3t-28.5 -2q-21 -2 -43 -4t-46 -4z" />
    <glyph glyph-name="F" unicode="F" horiz-adv-x="517" 
d="M259 604q-12 -82 -6.5 -163t9.5 -162q20 -1 42 0t43 0t40.5 -5t36.5 -14q14 -9 21.5 -22.5t3.5 -30.5q-7 -32 -45 -40q-11 -2 -28.5 -3.5t-36.5 -3t-37 -3t-30 -3.5q1 -8 1 -15.5t1 -15.5q3 -31 0 -61t-18 -59q-11 -24 -29.5 -38.5t-47.5 -16.5q-56 -4 -89 43
q-28 40 -31 91q-8 106 -9 212t4 212q2 40 5.5 80t16.5 78q12 37 35 67q14 20 35.5 30.5t46.5 14.5q48 6 95 6.5t95 -11.5q17 -5 32.5 -11t29.5 -14q20 -12 30.5 -29.5t5.5 -40.5t-21 -36t-39 -18q-11 -3 -23.5 -4t-24.5 -1q-29 -1 -57 -2.5t-57 -10.5z" />
    <glyph glyph-name="G" unicode="G" horiz-adv-x="672" 
d="M448 327q-15 2 -27 3.5t-23 4.5t-21.5 7t-21.5 10q-24 13 -37 32.5t-13.5 40t10.5 39.5t35 31q12 7 26.5 11.5t28.5 6.5q31 3 61 1.5t59 -10.5q48 -14 70.5 -47t20.5 -74q-2 -30 -0.5 -65t0.5 -70.5t-6 -70.5t-18 -65q-22 -48 -49.5 -81.5t-59.5 -53.5t-66.5 -28
t-70.5 -6q-89 5 -148.5 41.5t-94.5 93t-48 126.5t-8.5 142.5t24.5 142t50 123.5q35 63 89 106.5t129 62.5q21 6 47.5 7t52.5 -3.5t48 -16t36 -31.5q13 -19 11 -33.5t-12.5 -25.5t-26.5 -18t-30 -10q-140 -29 -188 -154q-9 -24 -18 -59.5t-14.5 -76.5t-4.5 -82t11.5 -75
t32.5 -57.5t60 -27.5q32 -3 60.5 26t41.5 103q3 20 2 40t0 40z" />
    <glyph glyph-name="H" unicode="H" horiz-adv-x="672" 
d="M231 291q52 9 103 16t105 -1q2 26 2.5 50t2.5 47q5 66 9.5 130.5t9.5 130.5q1 8 3.5 16.5t5.5 16.5q10 20 27.5 31t39.5 9q23 -2 38.5 -13.5t21.5 -32.5q5 -19 8.5 -38.5t3.5 -39.5q4 -125 6.5 -248.5t4.5 -248.5q1 -24 -4.5 -48.5t-10.5 -49.5q-2 -6 -4.5 -12t-5.5 -11
q-12 -22 -30.5 -33.5t-39 -12.5t-40 8.5t-32.5 30.5q-10 16 -15 35t-9 37q-4 17 -3.5 34.5t-0.5 34.5v32q-48 -2 -95.5 -2.5t-96.5 -2.5q0 -13 -0.5 -23.5t0.5 -21.5q3 -22 0.5 -49.5t-12 -52.5t-27 -42t-44.5 -18q-29 0 -48.5 17t-31 42t-16 53t-3.5 50q2 98 4.5 195
t6.5 196q2 46 5 91t6 91q2 19 6 33q6 20 20.5 31.5t33.5 12.5q21 2 37.5 -8t22.5 -31q13 -43 16 -92q6 -81 10 -162.5t8 -162.5q1 -3 1 -6t1 -8z" />
    <glyph glyph-name="I" unicode="I" horiz-adv-x="298" 
d="M247 238q1 -38 2.5 -72.5t0 -67t-7 -64t-17.5 -63.5q-8 -22 -25 -34.5t-37 -14.5t-40 6t-34 27q-15 18 -23 41.5t-11.5 49t-3.5 50.5t2 46q5 60 8 118.5t8 117.5q3 38 6 75.5t6 75.5l2 14t3 14q11 43 53 49q43 6 63 -31q7 -14 12.5 -29.5t7.5 -31.5q6 -52 10.5 -103.5
t9.5 -103.5q2 -17 2.5 -34.5t1.5 -34.5h1zM98 752q0 34 19 54.5t51 20.5q29 0 49 -18.5t21 -45.5q0 -14 -6.5 -27.5t-17.5 -24t-25.5 -17t-29.5 -6.5q-27 0 -44 17.5t-17 46.5z" />
    <glyph glyph-name="J" unicode="J" horiz-adv-x="548" 
d="M270 181q2 28 4 53l4 50q5 83 10 165t10 166q1 17 3.5 35t6.5 35q6 30 24.5 46t45.5 17t46.5 -14.5t26.5 -45.5q8 -35 13.5 -70t8.5 -71q7 -72 12.5 -143.5t10.5 -143.5q3 -60 0 -120q-5 -70 -45.5 -113t-111.5 -56q-56 -10 -109.5 -2t-106.5 25q-45 15 -69 57
q-19 32 -12 64.5t36 54.5q44 34 99 26q14 -2 27 -5.5t26 -5.5q8 -2 17 -2t23 -2z" />
    <glyph glyph-name="K" unicode="K" horiz-adv-x="631" 
d="M225 473q11 9 32 27t43.5 37.5t42.5 36.5t29 25q23 20 46 38.5t47 37.5q17 14 37 20q20 8 38 3t33 -19q29 -30 13 -69q-5 -14 -12 -27.5t-16 -24.5q-23 -26 -46 -51t-47 -50q-6 -7 -23.5 -23.5t-37 -35t-37 -35t-24.5 -23.5q22 -20 42 -38t40 -35t38.5 -33t37.5 -33
q23 -20 41 -43.5t31 -51.5q10 -21 8.5 -41.5t-12 -37t-29 -26.5t-42.5 -10q-30 0 -60 16q-49 28 -85 66q-41 45 -82 88l-18 18q-5 -38 -7.5 -73.5t-13.5 -67.5q-16 -52 -68 -56q-56 -5 -78 45q-14 33 -20.5 66.5t-9 67t-1.5 67t1 66.5q1 79 2 157t3 157l2 34t3 34
q3 25 16.5 39.5t34.5 18.5q20 3 38.5 -7t26.5 -33q9 -26 15 -52t11 -53t8.5 -55.5t8.5 -60.5z" />
    <glyph glyph-name="L" unicode="L" horiz-adv-x="484" 
d="M253 155q25 -2 47 -2.5t44 -4.5q17 -4 33 -10t30 -15q20 -12 30 -29.5t10 -35.5t-10 -35.5t-30 -30.5q-22 -14 -46.5 -20.5t-50.5 -6.5q-39 -1 -77.5 -0.5t-76.5 1.5q-44 2 -74 30t-34 73q-3 25 -2.5 49.5t2.5 49.5q3 53 6.5 112.5t6.5 121t6.5 121t6.5 112.5q1 24 6 48
q5 25 20.5 40.5t37.5 18.5q25 3 45.5 -8t29.5 -36q16 -40 20 -82q5 -64 8 -127t6 -127q1 -20 2 -47.5t1.5 -56t1.5 -56t1 -47.5z" />
    <glyph glyph-name="M" unicode="M" horiz-adv-x="833" 
d="M581 419q-25 -26 -48 -50t-48 -47q-14 -14 -30 -27.5t-33 -24.5q-39 -26 -76.5 -20.5t-70.5 39.5q-11 11 -21.5 20t-21.5 19q2 2 2 5v-12q2 -48 5.5 -97t5.5 -97q2 -20 1 -39.5t-3 -38.5q-4 -26 -19 -41t-36 -22q-29 -9 -60 3t-48 40q-9 13 -12.5 28t-2.5 30q1 20 2 38
t3 38q5 56 -1.5 110.5t-10.5 109.5q-5 56 -8 110.5t1 111.5q2 29 9 57q6 22 18 37.5t28 24t35 8t37 -10.5q13 -8 25 -18t21 -22q23 -32 45 -66t45 -67q12 -20 24 -39.5t26 -40.5q12 9 18 15q37 37 71 76.5t65 81.5q17 23 33.5 45t34.5 43q24 27 51.5 35.5t52.5 1t45 -30
t29 -59.5q7 -26 10 -53.5t3 -55.5q1 -56 0 -111.5t-3 -111.5q-1 -19 -2 -50.5t-2.5 -66t-3 -66.5t-2.5 -50q-2 -23 -9 -44.5t-19.5 -37.5t-32 -25t-46.5 -7q-33 6 -52 24.5t-28 42.5t-10 51.5t2 52.5q1 19 2.5 51t3 66.5t3 66.5t3.5 51q1 3 0.5 7t-0.5 9z" />
    <glyph glyph-name="N" unicode="N" horiz-adv-x="677" 
d="M198 333v-33q0 -62 -3 -123t-13 -123q-1 -6 -2.5 -13t-4.5 -13q-16 -42 -56 -39q-17 1 -31 12.5t-19 31.5q-2 8 -3 16t-2 17q-4 117 -7.5 233t-6.5 233q1 31 7 67.5t21.5 64.5t41.5 40.5t67 -4.5q24 -11 41.5 -30t32 -42t25.5 -47t22 -45q29 -55 54.5 -107t51.5 -104
q6 29 7.5 58.5t2 59.5l1 60t2.5 59q1 21 5.5 42.5t12.5 41.5q11 32 36 49.5t52 15.5q30 -2 52.5 -22t32.5 -54q9 -34 13 -81.5t4 -102t-4 -112t-12 -110.5t-20 -98.5t-28 -76.5q-21 -43 -59.5 -56.5t-78.5 8.5q-70 41 -115 115q-27 46 -51.5 93t-50.5 95q-4 5 -7 11.5
t-6 13.5q-2 0 -2.5 -0.5t-2.5 -0.5z" />
    <glyph glyph-name="O" unicode="O" horiz-adv-x="658" 
d="M299 13q-48 4 -90 29.5t-74.5 63t-54 83.5t-29.5 91q-13 83 -0.5 158.5t54.5 144.5q28 48 72.5 79.5t96.5 44.5t107 6t105 -37q48 -28 76.5 -69t40.5 -93q13 -53 12.5 -112t-14.5 -116.5t-40 -109t-64 -89t-87.5 -58.5t-110.5 -16zM432 412q-14 62 -46.5 95t-68.5 35.5
t-67.5 -26t-42.5 -88.5q-7 -32 -7.5 -65.5t4.5 -66.5q4 -32 16 -61t32 -54q48 -57 106 -20q21 15 36.5 34.5t21.5 47.5q11 39 16 79t0 90z" />
    <glyph glyph-name="P" unicode="P" horiz-adv-x="579" 
d="M261 180q0 -12 0.5 -28t1.5 -33t1 -32.5v-26.5q0 -19 -6 -37q-14 -55 -68 -64q-55 -9 -86 38q-17 26 -24 54.5t-9 59.5l-18 318q-2 45 -6 89.5t-7 89.5q-1 7 -1 14v14q2 34 17 52t48 27q45 14 91 21t94 10q23 2 47.5 -1.5t47.5 -10.5q43 -12 71.5 -40t45.5 -69
q18 -44 24.5 -89.5t8.5 -91.5q2 -54 -15.5 -103.5t-50.5 -86.5t-81 -57t-107 -16h-17zM228 579q13 -56 21.5 -112.5t12.5 -121.5q53 13 80.5 37.5t37.5 53.5t6 59t-13 54q-14 39 -54 42q-23 2 -45.5 0.5t-45.5 -12.5z" />
    <glyph glyph-name="Q" unicode="Q" horiz-adv-x="662" 
d="M299 13q-48 4 -90 29.5t-74.5 63t-54 83.5t-29.5 91q-13 83 -0.5 158.5t54.5 144.5q28 48 72.5 79.5t96.5 44.5t107 6t105 -37q48 -28 76.5 -69t40.5 -93q12 -49 12.5 -102.5t-10 -106.5t-31.5 -102t-52 -88q14 -20 22 -32t14 -22q13 -22 12.5 -31t-21.5 -24l-35 -26
q-20 -14 -32 -12t-26 23l-30 45q-29 -14 -60.5 -20t-66.5 -3zM432 412q-14 62 -46.5 95t-68.5 35.5t-67.5 -26t-42.5 -88.5q-7 -32 -7.5 -65.5t4.5 -66.5q4 -32 16 -61t32 -54q45 -54 100 -24q-26 45 -48 90q-10 19 -4 35.5t21 25t34.5 5.5t37.5 -22q7 -10 13.5 -18.5
t12.5 -17.5q10 36 13.5 73.5t-0.5 83.5z" />
    <glyph glyph-name="R" unicode="R" horiz-adv-x="670" 
d="M439 193q24 -14 45.5 -26.5t41.5 -26.5q33 -22 59 -48q27 -26 12 -61q-7 -17 -20.5 -25t-30.5 -10q-43 -6 -82 19q-35 23 -71 45t-71 45q-18 12 -35 25.5t-36 27.5q0 -12 -0.5 -22.5t0.5 -20.5q2 -30 -0.5 -59t-18.5 -55q-14 -26 -36 -40t-52 -12q-47 3 -75 47
q-14 21 -19 44.5t-5 47.5q-10 137 -5 272.5t7 272.5q1 29 15.5 45t38.5 24q40 13 78 17q45 6 90 10t91 -1q30 -3 58.5 -9t55.5 -18q45 -20 77.5 -52t50.5 -79q21 -54 25 -108.5t-17 -111.5q-37 -97 -128 -138zM260 560q5 -54 8 -105.5t2 -112.5q62 -14 101 1.5t57 45
t15.5 65.5t-24.5 65t-62 43t-97 -2z" />
    <glyph glyph-name="S" unicode="S" horiz-adv-x="534" 
d="M72 -20q-13 16 -17.5 33.5t-1.5 34.5t13.5 32t28.5 25q49 28 107 11q44 -11 58 6.5t-10 52.5q-26 32 -51 60t-54 52q-63 55 -83.5 122.5t-4.5 148.5q21 101 99 173q39 35 84.5 50t99.5 3q45 -10 69 -39.5t41 -67.5q6 -14 8.5 -30.5t2.5 -33.5q0 -40 -37 -55
q-20 -8 -36 -2.5t-30 18.5l-17 19q-21 21 -45 2q-19 -15 -27.5 -35.5t-10.5 -44.5q-4 -87 62 -143q74 -62 125 -143q22 -35 32.5 -74t4.5 -81q-5 -37 -25.5 -64t-52.5 -47q-28 -17 -75.5 -26t-97.5 -8t-94 13t-65 38z" />
    <glyph glyph-name="T" unicode="T" horiz-adv-x="544" 
d="M183 615q-24 3 -45.5 5.5t-42.5 6.5q-15 2 -30 8q-16 8 -25.5 20.5t-8.5 31.5q0 36 35 50q8 3 16.5 5.5t16.5 3.5q33 4 66.5 6.5t66.5 5.5q38 4 76.5 7t76.5 8q19 2 36.5 1t34.5 -7q10 -4 20 -10t18 -14q11 -12 14.5 -25.5t1 -26.5t-11.5 -24t-24 -18q-57 -24 -117 -23
q-8 0 -16.5 -1.5t-16.5 -2.5q20 -93 26 -184.5t12 -183.5l8 -165q1 -26 -4 -49.5t-21 -45.5q-22 -30 -55 -34.5t-61 20.5q-37 33 -39 86l-7 357q-1 48 -0.5 94.5t0.5 97.5z" />
    <glyph glyph-name="U" unicode="U" horiz-adv-x="656" 
d="M387 621q-2 21 -1 41.5t8 40.5q11 32 35 51t55 21q34 2 59 -13.5t39 -44.5q11 -24 18.5 -57.5t11.5 -73.5q5 -58 4.5 -133.5t-12 -151.5t-36 -143.5t-66.5 -109.5q-36 -36 -80 -56.5t-90 -26t-91 5t-82 37t-63.5 69t-35.5 102.5q-8 58 -11.5 118.5t-3 119.5t5 115.5
t12.5 106.5q5 33 18.5 54.5t30.5 32.5t36 11t35.5 -9.5t28 -29t13.5 -47.5q2 -23 0.5 -68.5t-2.5 -102t0.5 -116t9 -109t23.5 -83t43 -36.5q20 -2 36 6.5t28 24.5t20.5 37.5t13.5 45.5q11 48 12.5 93t-2.5 90t-10 91.5t-10 96.5z" />
    <glyph glyph-name="V" unicode="V" horiz-adv-x="663" 
d="M331 207l12 30q29 96 55.5 191.5t42.5 195.5q4 24 12.5 46t23.5 42q18 23 43 32t51 1q48 -15 58 -64q6 -26 2.5 -50t-11.5 -48q-24 -80 -47 -159t-49 -158q-14 -42 -29.5 -83t-32.5 -82q-8 -18 -18.5 -35t-23.5 -33q-28 -34 -64 -43t-77 8q-27 11 -49 27t-37 41
q-14 24 -27 48.5t-23 50.5q-32 83 -50.5 168t-29.5 173q-4 35 -7 70.5t-6 71.5q-1 18 0 37q3 40 41 52q20 6 39 0.5t30 -22.5q18 -26 29 -55q14 -43 26 -86t25 -86l78 -248q2 -7 5 -14.5t8 -18.5z" />
    <glyph glyph-name="W" unicode="W" horiz-adv-x="866" 
d="M274 296q5 14 10 29t12 29q10 20 20 39.5t22 37.5q20 29 49 35.5t61 -0.5q18 -3 30.5 -15t20.5 -28l60 -120q3 -6 6.5 -12.5t10.5 -12.5l12 83q7 53 13.5 105.5t14.5 106.5q5 28 14.5 55t26.5 51q17 26 43 37t55 4q57 -14 67 -69q6 -29 3 -58t-10 -58
q-20 -91 -41.5 -179.5t-43.5 -178.5q-14 -54 -36 -105q-20 -47 -56.5 -61t-84.5 5q-21 8 -37.5 22t-30.5 32q-20 25 -32.5 52.5t-23.5 56.5l-16 42l-15 -30q-19 -32 -37 -64t-38 -64q-6 -9 -13 -18t-15 -17q-22 -23 -48 -33t-52 -7.5t-50 16t-42 39.5t-27.5 54t-13.5 58
q-11 84 -12.5 166.5t5.5 166.5q2 29 5.5 58.5t7.5 58.5q2 11 4 21t6 20q17 49 66 50q25 2 43.5 -9.5t26.5 -34.5q18 -44 24 -96q8 -55 13 -109.5t10 -109.5q2 -11 3.5 -21t3.5 -21q4 0 6 1z" />
    <glyph glyph-name="X" unicode="X" horiz-adv-x="596" 
d="M266 586l32 64q16 29 36.5 54.5t46.5 45.5q22 17 46 24t52 -1q38 -11 56.5 -43t10.5 -72q-7 -34 -21 -63.5t-33 -56.5q-22 -33 -43.5 -65.5t-44.5 -64.5q-10 -13 -9 -23t9 -24q17 -24 31 -49t29 -51q25 -42 40.5 -87.5t29.5 -93.5q10 -34 2.5 -59t-30.5 -39
q-24 -17 -53 -14t-50 29q-26 29 -48 59.5t-43 62.5q-12 17 -20 35t-19 38q-10 -10 -14 -18q-20 -32 -37.5 -63t-36.5 -62q-16 -28 -36 -49q-17 -18 -38.5 -21.5t-40.5 7.5t-27.5 30.5t-2.5 43.5q7 26 15.5 51.5t19.5 51.5q22 50 44.5 99.5t45.5 99.5q11 25 0 49
q-19 38 -36.5 77t-34.5 78q-13 27 -19 59q-12 40 21 70q32 27 73 11q15 -7 26 -18t21 -25z" />
    <glyph glyph-name="Y" unicode="Y" horiz-adv-x="663" 
d="M313 337q-34 19 -67 46t-63 58.5t-55.5 65t-44.5 65.5q-11 18 -18.5 37t-15.5 39q-2 6 -3 13l-2 14q-2 23 5.5 41.5t27.5 29.5q43 24 83 -5q8 -5 14.5 -11.5t12.5 -13.5l189 -195q1 -1 2.5 -1t4.5 -2l11 19q20 34 39.5 67.5t39.5 67.5q7 11 15 21l16 20q24 26 58 26
q30 -1 49.5 -20.5t16.5 -49.5q-5 -44 -16 -99.5t-27 -116t-35.5 -123.5t-40.5 -121.5t-42.5 -110.5t-41.5 -91q-7 -13 -16.5 -24t-20.5 -19q-17 -11 -36 -13t-36.5 4.5t-31.5 20.5t-21 34q-7 21 -2.5 63t14.5 90t21 95t17 79z" />
    <glyph glyph-name="Z" unicode="Z" horiz-adv-x="583" 
d="M278 153l135 -6q51 -2 81.5 -26.5t30.5 -82.5q0 -23 -12 -36.5t-32 -18.5q-25 -7 -51 -7t-53 2q-23 2 -46 3l-46 2q-32 2 -64 2.5t-65 2.5q-11 1 -22 5.5t-21 9.5q-29 15 -43 42t-7 55q2 11 7 22t10 21q68 111 116 223t89 227q-42 5 -81.5 9t-77.5 10q-11 2 -21.5 5.5
t-21.5 9.5q-15 9 -24.5 22t-13 26.5t0 27t14.5 23.5q8 8 18.5 13.5t23.5 7.5q38 10 87 13q51 3 102 1t104 -13l30 -6q26 -7 46.5 -22.5t34 -35.5t17.5 -43t-3 -46q-8 -21 -18 -40.5t-21 -39.5l-191 -338q-4 -5 -6.5 -11t-5.5 -13z" />
    <glyph glyph-name="bracketleft" unicode="[" horiz-adv-x="428" 
d="M249 625q-1 -10 -2.5 -20t-1.5 -21q1 -77 1.5 -152t2.5 -150q2 -50 6 -98t8 -98q0 -3 1 -5.5t2 -7.5h30q20 0 36.5 -3.5t31.5 -11.5q32 -19 28 -45.5t-39 -39.5q-36 -14 -73.5 -18.5t-77.5 0.5q-61 10 -95.5 38t-39.5 78q-5 38 -6.5 75.5t-2.5 75.5q-1 37 0 73t0 74
q-1 42 -1 90t5.5 94.5t17.5 88.5t36 73t61.5 47.5t92.5 11.5q17 -1 36.5 -5.5t36.5 -11.5q21 -10 31.5 -24.5t10 -29.5t-11 -29.5t-31.5 -24.5q-10 -5 -21.5 -7.5t-22.5 -5.5q-12 -3 -23.5 -5t-25.5 -6z" />
    <glyph glyph-name="backslash" unicode="\" horiz-adv-x="382" 
d="M321 229q5 -14 11.5 -35.5t11 -45t5 -48t-6 -45t-22.5 -35t-44 -18.5q-27 -4 -44.5 6t-30 28t-21 40.5t-16.5 44.5q-19 48 -36.5 102.5t-32.5 109.5t-27.5 107.5t-20.5 97.5t-11.5 79.5t-1.5 53.5q2 20 14 34.5t29 19.5q20 5 37 -0.5t29 -21.5q4 -6 8.5 -13.5t6.5 -15.5
q41 -109 81 -218.5t82 -226.5z" />
    <glyph glyph-name="bracketright" unicode="]" horiz-adv-x="428" 
d="M182 625q-14 4 -25.5 6t-23.5 5q-11 3 -22.5 5.5t-21.5 7.5q-21 10 -31.5 24.5t-11 29.5t10 29.5t31.5 24.5q17 7 36.5 11.5t36.5 5.5q55 5 92.5 -11.5t61.5 -47.5t36 -73t17.5 -88.5t5.5 -94.5t-1 -90q-1 -38 0 -74t0 -73q-1 -38 -2.5 -75.5t-6.5 -75.5
q-5 -50 -39.5 -78t-95.5 -38q-40 -5 -77.5 -0.5t-73.5 18.5q-35 13 -39 39.5t28 45.5q15 8 31.5 11.5t36.5 3.5h30q1 5 2 7.5t1 5.5q4 50 8 98t6 98q2 75 2.5 150t1.5 152q0 11 -1.5 21t-2.5 20z" />
    <glyph glyph-name="asciicircum" unicode="^" horiz-adv-x="415" 
d="M200 604q-7 -15 -12.5 -26.5t-10.5 -21.5q-8 -17 -16.5 -35t-18.5 -35q-11 -19 -30.5 -28.5t-39.5 2.5t-20 32t5 38q13 38 25 74.5t27 71.5q7 20 20 39.5t30 31.5t37 13t42 -15q18 -15 29 -30q63 -84 89 -179q10 -37 -17 -59q-14 -10 -31.5 -10t-32.5 10q-20 14 -31.5 33
t-20.5 39q-6 12 -10.5 25t-12.5 30z" />
    <glyph glyph-name="underscore" unicode="_" horiz-adv-x="381" 
d="M65 11q-14 4 -22.5 14.5t-7.5 21.5q1 15 13.5 23t29 12t33 4.5t25.5 0.5h56t43.5 -0.5t35 -1.5t30.5 -4q36 -6 39 -34q2 -12 -3 -20t-13.5 -13.5t-18.5 -8.5t-19 -4q-21 -3 -49 -4t-58 0t-60 4.5t-54 9.5z" />
    <glyph glyph-name="grave" unicode="`" horiz-adv-x="261" 
d="M209 566q-6 -20 -26 -27t-37 7q-24 20 -47.5 39.5t-45.5 40.5q-13 11 -15.5 27.5t7.5 30.5q8 12 23 15.5t32 -2.5q15 -6 36 -20.5t39 -33.5t28.5 -39.5t5.5 -37.5z" />
    <glyph glyph-name="a" unicode="a" horiz-adv-x="613" 
d="M183 169q-3 -23 -6 -44.5t-7 -42.5q-3 -22 -12 -40q-15 -34 -52 -32q-36 2 -50 35q-7 19 -9 41q-3 49 -4.5 112t4 128.5t21 128.5t45 112.5t77 80.5t117.5 33q41 1 74 -13t59 -38.5t44.5 -56t30.5 -65.5q17 -48 31 -106.5t22 -119t7.5 -117.5t-12.5 -100
q-9 -30 -33.5 -47t-56.5 -15q-30 2 -53 22t-29 51q-2 12 -3 24t-3 24q-2 11 -3.5 23.5t-3.5 26.5q-48 -2 -96 -2.5t-99 -2.5zM202 287q42 2 81 4l78 4q1 22 -3 53t-9 60q-8 43 -21.5 64t-30.5 21t-35 -20t-34 -57q-11 -26 -16 -56.5t-10 -72.5z" />
    <glyph glyph-name="b" unicode="b" horiz-adv-x="604" 
d="M395 353q14 -7 25 -12l22 -10q31 -14 54 -34t41 -46q32 -47 22 -96t-59 -83q-23 -17 -54 -30t-63.5 -22.5t-65 -15t-58.5 -8.5q-30 -4 -60.5 -4.5t-61.5 3.5q-71 6 -76 80q-2 41 -4 80.5t-3 81.5q-2 53 -1.5 104.5t-1.5 105.5q-1 42 -3.5 82t-4.5 82q-1 18 0 35t6 34
q6 20 22.5 30t37 13.5t41.5 1.5t36 -5q74 -14 137.5 -43.5t119.5 -71.5q13 -8 22.5 -17.5t18.5 -20.5q47 -56 11 -119q-25 -46 -73 -76q-6 -5 -12 -9.5t-15 -9.5zM237 128q17 0 45 2.5t55 9.5q35 9 50.5 23t14 29.5t-18.5 30.5t-46 26t-59.5 17.5t-53.5 9.5q4 -38 7 -74
t6 -74zM220 459q11 4 20 6t17 7q10 4 18 10t16 13q15 13 0 30q-15 15 -35 25t-43 23q2 -31 3.5 -58t3.5 -56z" />
    <glyph glyph-name="c" unicode="c" horiz-adv-x="557" 
d="M46 271q-4 97 28 178t106 146q45 41 97 58t114 1q23 -6 43 -17t35 -30q16 -18 18 -38t-9 -37q-22 -37 -72 -26q-2 1 -5 1t-6 2q-48 15 -86 -20q-45 -42 -66 -92t-16 -112q4 -50 28 -74.5t74 -32.5q18 -3 35.5 -2t34.5 5q23 7 44 8q25 2 45.5 -10t28.5 -32t2 -40.5
t-25 -37.5q-23 -20 -48.5 -30t-54.5 -12q-63 -5 -124 7t-109 42t-78.5 78t-33.5 117z" />
    <glyph glyph-name="d" unicode="d" horiz-adv-x="629" 
d="M52 590q0 66 67 87q88 24 166.5 15.5t140.5 -46.5t103.5 -103t54.5 -153q8 -55 2 -108.5t-28.5 -100.5t-62.5 -86.5t-99 -66.5q-23 -11 -48.5 -14.5t-51.5 -5.5q-23 -2 -46 -4.5t-46 -2.5t-44.5 1.5t-42.5 5.5q-30 6 -49.5 32t-21.5 61q-1 22 -0.5 44t1.5 45
q4 105 3.5 203t1.5 197zM237 151q55 5 96 31q33 22 52.5 59.5t26 80.5t-1 86t-28.5 75t-56.5 48t-84.5 5q0 -53 -0.5 -99.5t-1.5 -92.5t-1.5 -93t-0.5 -100z" />
    <glyph glyph-name="e" unicode="e" horiz-adv-x="467" 
d="M229 571q4 -49 -0.5 -96t-0.5 -95q12 2 23.5 3t22.5 2q17 2 33.5 3t33.5 1q41 -2 46 -34q3 -16 -5.5 -29.5t-26.5 -20.5q-12 -4 -24.5 -6t-25.5 -4q-18 -2 -36.5 -4t-38.5 -4v-177q7 1 18 4t23 6t23 5.5t19 3.5q14 2 26.5 4t26.5 3q21 1 35.5 -9t19.5 -27t-1.5 -32
t-23.5 -26q-20 -14 -42.5 -21.5t-46.5 -11.5q-15 -2 -40 -8.5t-40 -9.5q-63 -11 -108 18.5t-59 92.5q-8 38 -8 73q-3 103 0 204.5t11 204.5q1 17 6 33.5t13 30t20 23t29 12.5q103 15 203 2q15 -2 29.5 -7.5t28.5 -12.5q35 -16 32 -55q-2 -19 -12.5 -34t-28.5 -15
q-23 0 -42.5 1t-37.5 2.5t-36 3.5t-38 3z" />
    <glyph glyph-name="f" unicode="f" horiz-adv-x="457" 
d="M234 602q-1 -70 1.5 -139.5t5.5 -139.5h27q17 -3 35.5 -5t35.5 -6q9 -3 18 -9t14 -12q18 -20 10.5 -41.5t-36.5 -29.5q-22 -6 -47 -11t-51 -11q-1 -14 -0.5 -30.5t1.5 -33.5q1 -13 1.5 -25.5t0.5 -24.5q-2 -42 -31 -71q-12 -14 -28.5 -20.5t-34 -7t-34.5 6t-30 20.5
q-38 35 -36 84q0 54 0.5 109t-1.5 111q-1 55 -3.5 109t-4.5 108q-1 43 3 85q3 33 26 58.5t61 33.5q26 6 54 9t55 6q27 2 54.5 3t54.5 3q25 1 40 -9.5t21.5 -27t5 -35.5t-10.5 -34t-25 -23.5t-38 -3.5q-29 0 -56.5 1t-57.5 3z" />
    <glyph glyph-name="g" unicode="g" horiz-adv-x="611" 
d="M423 306q-19 0 -34.5 -0.5t-29.5 0.5q-38 3 -63 29.5t-22 61.5q2 28 22.5 50t52.5 27q50 8 98 1.5t85 -38.5q13 -11 20.5 -31t11 -45t3 -52.5t-2.5 -53.5t-6 -48t-7 -35q-18 -62 -61.5 -102t-98.5 -56.5t-114 -9.5t-107 38q-49 31 -78.5 81t-41 109.5t-6 123.5
t26.5 123.5t56.5 110t83.5 83.5q25 17 58 29t67.5 16.5t67.5 -0.5t58 -23q17 -14 26 -31t6 -40q-4 -21 -16.5 -37t-32.5 -16q-102 -2 -153.5 -45t-69.5 -118q-10 -39 -11.5 -83.5t6.5 -82.5q9 -43 29 -64.5t44.5 -26.5t49.5 5t45 31t31 52t7 67z" />
    <glyph glyph-name="h" unicode="h" horiz-adv-x="629" 
d="M385 220q-41 -2 -78.5 -3t-76.5 -3q-1 -6 -2 -11t-1 -10q-1 -21 -0.5 -42.5t-0.5 -42.5q0 -41 -25 -78q-12 -18 -29 -27t-35.5 -9t-36 8.5t-29.5 25.5t-19 35.5t-6 38.5q2 48 4 94.5t4 94.5l12 213q2 32 4 65t4 65q2 16 6 29q7 20 23 30.5t36 12.5q21 1 38 -9t25 -29
q5 -11 8.5 -24t4.5 -26q4 -69 7 -137.5t7 -137.5v-32q41 3 79.5 7t78.5 8q2 23 3.5 47t3.5 48l12 108t13 109q2 20 12 35.5t31 24.5q26 10 51.5 -1.5t33.5 -39.5q6 -18 8.5 -36.5t3.5 -37.5q5 -84 7.5 -166t7.5 -164q2 -32 4 -63.5t6 -63.5q7 -42 -5.5 -70t-35.5 -41.5
t-51.5 -13.5t-53 13.5t-40 39.5t-13.5 65q2 24 1 48.5t-1 52.5z" />
    <glyph glyph-name="i" unicode="i" horiz-adv-x="281" 
d="M237 138q0 -22 -5 -47.5t-16 -47.5t-29 -36.5t-44 -13.5t-44 16.5t-28.5 38t-14.5 48t-2 46.5q3 51 6.5 101.5t7.5 101.5q2 41 4.5 81.5t6.5 81.5q3 40 39 58q28 14 55.5 2t38.5 -42q6 -16 9 -32.5t4 -33.5q6 -84 9 -163t3 -159zM228 693q0 -24 -18 -41t-43 -16
q-26 1 -43.5 19.5t-16.5 42.5q1 23 18.5 39t41.5 16q26 0 44 -17.5t17 -42.5z" />
    <glyph glyph-name="j" unicode="j" horiz-adv-x="539" 
d="M307 261q2 66 0 132.5t-9 132.5q-2 24 -3 49t1 49q2 31 19.5 49.5t45.5 21.5q26 3 48 -11.5t30 -43.5q7 -24 11.5 -48t7.5 -49q10 -80 19 -159.5t17 -160.5q7 -83 -22 -136t-80 -77.5t-116 -21.5t-129 33q-15 5 -29.5 10t-27.5 13q-29 17 -41.5 47t-5.5 60q7 29 31.5 51
t56.5 27q49 7 93 -18q45 -26 64 -12.5t19 62.5z" />
    <glyph glyph-name="k" unicode="k" horiz-adv-x="566" 
d="M227 212q0 -23 1 -44.5t-1 -42.5q-3 -22 -6.5 -44.5t-12 -41t-23.5 -31.5t-40 -16q-27 0 -47 13t-32.5 32.5t-18.5 43t-5 45.5q4 202 12 405q1 19 3.5 37.5t5.5 37.5q0 2 0.5 4.5t0.5 4.5q8 27 25 42.5t42 16.5q24 1 43.5 -14t24.5 -44q7 -37 10 -74.5t7 -75.5
q1 -8 0.5 -16t-0.5 -19q8 6 12.5 9t8.5 8l108 114q10 10 19 19.5t19 19.5q22 19 47 16q18 -2 30.5 -13t13.5 -28q2 -21 -8 -42q-32 -59 -72 -107t-78 -96q-5 -5 -8.5 -9.5t-7.5 -11.5q4 -3 7.5 -5.5t7.5 -5.5q40 -29 80.5 -58.5t80.5 -58.5q16 -12 28 -27t21 -32
q8 -14 7.5 -29t-11.5 -28q-23 -27 -59 -18q-24 5 -43.5 18t-37.5 28q-35 29 -70.5 56.5t-70.5 55.5q-3 2 -6 3t-7 3z" />
    <glyph glyph-name="l" unicode="l" horiz-adv-x="455" 
d="M226 133q23 0 44 -0.5t41 0.5q17 1 32.5 -0.5t30.5 -8.5q20 -10 32.5 -25t11.5 -38q0 -23 -12 -37t-32 -22q-10 -4 -19.5 -6.5t-18.5 -3.5q-38 -1 -76.5 -2t-76.5 1q-116 6 -131 122q-5 35 -7 70t0 70q3 70 8 139.5t10 139.5q2 20 6 40t10 40q8 24 25 36.5t40 10.5
t37.5 -13.5t22.5 -28.5t11.5 -37t4.5 -38q2 -78 3 -155.5t3 -155.5q1 -24 0.5 -48t-0.5 -50z" />
    <glyph glyph-name="m" unicode="m" horiz-adv-x="777" 
d="M537 398q-11 -10 -26 -25t-31 -30t-30.5 -29t-23.5 -22q-6 -6 -12.5 -11.5t-13.5 -10.5q-27 -23 -55.5 -19t-54.5 22.5t-48.5 45.5t-38.5 51q-1 -27 1 -52t4.5 -49.5t5 -48.5t4.5 -50q2 -23 1.5 -46.5t-0.5 -46.5q-1 -25 -11.5 -43t-33.5 -29q-53 -24 -100 7
q-13 8 -19 21.5t-6 29.5q0 26 1 52t1 52v53v49t-0.5 48.5t-0.5 53.5q0 16 -1 40t-1.5 49.5t-1.5 49.5t-1 41q0 34 18 55.5t49 27.5q20 5 37.5 -1t33.5 -19q9 -8 17.5 -17.5t17.5 -18.5q15 -15 29.5 -38t29.5 -48t30.5 -48.5t31.5 -39.5q57 56 109.5 106.5t96.5 105.5
q16 20 37.5 28.5t43 6.5t41 -14.5t32.5 -35.5q11 -21 16 -44t5 -46q2 -94 2 -186v-186q0 -47 -17 -77.5t-42 -44.5t-53 -12t-51 19.5t-35.5 51t-6.5 81.5q3 26 5.5 56.5t5 62t4.5 63t5 59.5z" />
    <glyph glyph-name="n" unicode="n" horiz-adv-x="673" 
d="M420 324q1 4 1.5 7t0.5 8q1 56 1.5 110t1.5 110q0 22 3.5 42.5t14.5 39.5q28 53 83 52q28 -1 47.5 -15t33.5 -40q12 -24 17 -71t4.5 -105t-6 -121.5t-13.5 -121t-19 -103.5t-22 -68q-12 -21 -29.5 -33.5t-37.5 -14.5t-41.5 7t-40.5 31q-17 18 -33 42t-31.5 49t-31 49.5
t-30.5 44.5q-23 32 -45 65t-48 69q-1 -9 -2 -14.5t-1 -10.5q1 -42 2 -82t2 -82q0 -28 -0.5 -55t-3.5 -55q-3 -33 -23.5 -49.5t-48.5 -9.5q-22 5 -32.5 19.5t-14.5 36.5q-8 45 -12 86q-6 56 -12 110.5t-10 110.5q-2 47 -3 93.5t-1 92.5q1 35 14 61.5t45 40.5q34 15 62 4.5
t51 -36.5q19 -22 35.5 -45.5t33.5 -46.5q26 -39 51.5 -77.5t50.5 -77.5l16 -24l16 -24q3 0 5 1z" />
    <glyph glyph-name="o" unicode="o" horiz-adv-x="608" 
d="M52 304q5 70 12.5 131t30.5 107.5t67.5 76t123.5 36.5q89 7 144.5 -24.5t93.5 -106.5q21 -42 30.5 -89.5t9.5 -95.5t-8.5 -94t-23.5 -85q-35 -91 -97.5 -129t-150.5 -41q-78 -3 -125.5 22t-72.5 68.5t-31.5 102t-2.5 121.5zM405 246q6 52 5.5 101t-17.5 96
q-8 22 -27.5 36t-42.5 18.5t-46 0t-37 -18.5q-17 -17 -26.5 -47t-14 -63t-5 -64t-0.5 -50q1 -40 16 -65t37 -36.5t48 -10.5t49 13.5t40 35t21 54.5z" />
    <glyph glyph-name="p" unicode="p" horiz-adv-x="592" 
d="M251 177q-9 -42 -17 -84t-28 -77q-27 -50 -82 -46q-32 2 -49.5 16.5t-25 35.5t-8 45t2.5 46q21 113 21.5 228.5t-8.5 242.5q4 100 111 115q27 5 54 2t54 -5q48 -2 96 -9q60 -9 98.5 -40t55.5 -86q17 -53 19 -106t-12 -107q-19 -69 -66 -108.5t-119 -52.5
q-24 -5 -48.5 -6.5t-48.5 -3.5zM263 344q17 2 30.5 2.5t26.5 2.5q26 9 40.5 30.5t18 47t-3 52t-22 46t-39.5 29t-55 1.5q1 -54 2 -106t2 -105z" />
    <glyph glyph-name="q" unicode="q" horiz-adv-x="664" 
d="M499 30q-24 -11 -46 -21.5t-45 -15.5q-51 -12 -103.5 -7.5t-99 28.5t-83 67t-55.5 108q-11 38 -14 81t0 86.5t11.5 85.5t20.5 78q20 63 67.5 106.5t107 65t123.5 18.5t117 -34q40 -23 62 -57.5t32 -79.5q10 -46 14.5 -105t2 -119t-14.5 -116t-35 -95q6 -5 11.5 -11.5
t11.5 -11.5q3 -5 7.5 -8.5t8.5 -7.5q26 -29 7 -57q-9 -13 -25.5 -17t-33.5 4q-10 5 -19.5 12t-20.5 15q-8 6 -9 8zM435 228q5 14 9 23.5t7 18.5q11 41 11.5 81t-3.5 82q-5 61 -33.5 92t-64.5 33t-70 -24.5t-48 -80.5q-10 -48 -11 -95.5t5 -96.5q3 -22 12 -43t23.5 -36.5
t35 -22.5t47.5 -1q-5 7 -10 13l-10 12q-7 9 -14.5 18.5t-13.5 18.5q-18 26 2 49q10 11 23 16t27 0q12 -5 24.5 -11.5t23.5 -14.5q14 -11 28 -31z" />
    <glyph glyph-name="r" unicode="r" horiz-adv-x="557" 
d="M238 190q-2 -25 -3 -57.5t-8.5 -61.5t-24 -50.5t-50.5 -23.5q-24 -2 -42.5 8t-31.5 25.5t-19.5 35.5t-7.5 39q-3 93 -0.5 183t1.5 181v59t1 59q1 32 15.5 49t42.5 27q63 18 128.5 17.5t122 -22t97.5 -66t53 -113.5q7 -39 2.5 -75t-18.5 -68t-36.5 -59t-52.5 -47
q13 -9 29 -24.5t31.5 -33t28 -35t18.5 -31.5q16 -46 -17 -69q-14 -12 -33.5 -11t-36.5 16q-8 8 -15 16.5t-15 16.5q-35 42 -76 67t-83 48zM244 303q37 8 62 28t38.5 45.5t14 53t-12.5 50.5t-40 38.5t-69 17.5q2 -26 3 -56.5t1 -61t0.5 -60.5t2.5 -55z" />
    <glyph glyph-name="s" unicode="s" horiz-adv-x="480" 
d="M226 235q-32 29 -63.5 56.5t-62.5 55.5q-48 49 -58 107t21 119q30 57 76.5 94.5t111.5 51.5q31 8 63.5 0t52.5 -26.5t20.5 -44.5t-30.5 -53q-13 -12 -28 -22t-29 -20.5t-26 -23t-19 -28.5q-6 -16 -4.5 -30.5t15.5 -26.5q32 -33 64.5 -63.5t58.5 -66.5q23 -31 36.5 -66.5
t12.5 -75.5q-2 -60 -42 -102t-104 -52q-26 -5 -53.5 -7t-53.5 -4q-40 -4 -65.5 7t-36.5 28.5t-9 39t16.5 39.5t40.5 28.5t63 6.5q18 -3 32 3t19.5 17.5t1.5 27t-21 31.5z" />
    <glyph glyph-name="t" unicode="t" horiz-adv-x="547" 
d="M352 578q2 -34 4.5 -64.5t4.5 -61.5q4 -67 7.5 -133t7.5 -133q1 -15 1 -30.5t1 -31.5q2 -44 -19 -82q-14 -21 -33 -33t-47 -11q-53 0 -78 46q-11 20 -15 40.5t-3 42.5q4 112 7.5 221.5t7.5 220.5v16q-20 1 -39 1.5t-37 2t-34.5 5.5t-31.5 12q-15 9 -22 21.5t-6 25.5
t9.5 24.5t24.5 19.5q24 9 50 13.5t52 6t52.5 1.5t51.5 1q29 2 58 3.5t58 3.5q26 2 50.5 -3t46.5 -19q23 -14 30.5 -36t-1.5 -42q-13 -22 -37 -33q-18 -8 -37 -11.5t-39 -3.5h-45z" />
    <glyph glyph-name="u" unicode="u" horiz-adv-x="627" 
d="M213 261q8 -45 27.5 -69.5t43 -31.5t47.5 1.5t42.5 30t27.5 54t2 73.5q-6 37 -10.5 73.5t-11.5 72.5q-5 29 -6 57.5t10 55.5q11 30 32.5 48.5t47.5 18.5q31 0 51.5 -15t33.5 -43q10 -19 13 -40t6 -43q8 -56 11 -113.5t-3.5 -111.5t-23 -101.5t-47 -84.5t-77.5 -60.5
t-113 -28.5q-41 -3 -82 6.5t-76.5 33.5t-62.5 62t-40 91q-7 26 -11 61t-5 74t0.5 79t6.5 77t14 68.5t22 52.5q17 28 42 38.5t48 4t39 -29t16 -59.5q1 -39 -3 -77t-7.5 -75.5t-5.5 -75t2 -74.5z" />
    <glyph glyph-name="v" unicode="v" horiz-adv-x="599" 
d="M344 303q12 43 21 87.5t19.5 88t23 86t30.5 82.5q14 26 38 34.5t47 -0.5q24 -9 34.5 -28.5t11 -42.5t-5.5 -46.5t-15 -40.5q-29 -64 -46 -131.5t-39 -134.5q-11 -35 -22 -68.5t-24 -66.5q-22 -51 -56 -81t-71.5 -34.5t-75 17.5t-67.5 74q-28 49 -46.5 101.5t-30.5 106
t-19.5 107t-12.5 105.5q-3 37 0 72q2 27 16.5 44t37.5 25t45 -0.5t36 -30.5q7 -12 13.5 -24t11.5 -25q22 -69 44.5 -137.5t45.5 -137.5q9 -27 15.5 -44t12.5 -19t12.5 12.5t15.5 49.5z" />
    <glyph glyph-name="w" unicode="w" horiz-adv-x="746" 
d="M346 125q-14 -41 -40 -72t-57.5 -44t-66.5 -4.5t-67 44.5q-25 29 -38 63t-21 72q-8 43 -11 97t-1.5 110t7.5 109.5t18 97.5q16 49 44.5 71.5t56.5 20.5t49.5 -27.5t23.5 -70.5q1 -26 -5 -69t-14 -89.5t-15.5 -90t-8.5 -69.5q-2 -46 6.5 -63.5t22 -12.5t27.5 29.5t22 62.5
q4 18 7 36.5t7.5 36.5t11 33t16.5 25q15 16 33.5 22.5t36 2.5t33 -16.5t24.5 -33.5q4 -11 8 -41.5t11 -62t19.5 -54t33.5 -18.5q15 3 22.5 24t10 46.5t1.5 50t-2 35.5q-7 62 -12 119.5t0 116.5q3 35 23.5 51.5t45 16.5t46 -15.5t27.5 -44.5q9 -48 13 -111t2.5 -127.5
t-10 -124t-24.5 -101.5q-21 -54 -55 -93t-76 -49.5t-89.5 14.5t-95.5 97z" />
    <glyph glyph-name="x" unicode="x" horiz-adv-x="587" 
d="M381 366q14 -22 27.5 -42t26.5 -40q12 -18 26.5 -42.5t27 -50.5t21 -51.5t10.5 -44.5q2 -23 -6 -41.5t-22.5 -30t-33.5 -14t-40 6.5q-28 12 -51 38q-31 36 -55 71l-48 70q-5 -5 -8.5 -9.5t-7.5 -8.5q-25 -34 -48.5 -67t-48.5 -66q-11 -18 -31 -31q-25 -21 -56 -4
q-13 9 -18.5 23t-0.5 32q8 32 23 63q25 47 50.5 93.5t51.5 93.5q3 5 5.5 10t6.5 12q-20 31 -38.5 62t-36.5 63q-14 26 -27 52.5t-24 53.5q-4 9 -6 21t0 23q1 30 23.5 46t51.5 9q21 -6 44 -27.5t45.5 -48.5t41.5 -53t31 -41q13 17 24.5 33.5t24.5 31.5q35 43 61 70.5t62 41.5
q20 6 37 0t31 -22q29 -32 12 -70q-12 -23 -26 -44.5t-28 -41.5q-19 -24 -38.5 -47.5t-39.5 -46.5q-7 -8 -13 -16.5t-13 -18.5z" />
    <glyph glyph-name="y" unicode="y" horiz-adv-x="584" 
d="M227 293q-34 21 -57.5 50t-43.5 61q-17 26 -34 51t-32 51q-10 16 -16.5 31.5t-12.5 32.5q-8 21 -2.5 39t21.5 32q36 29 76 9q11 -6 20.5 -14t17.5 -16q35 -35 69 -70.5t68 -70.5q4 -5 13 -13q10 19 26 43.5t33.5 49.5t34.5 48t30 40q22 31 59 31q27 0 44.5 -18t15.5 -45
q0 -8 -2 -15.5t-4 -15.5q-5 -13 -10.5 -25.5t-11.5 -24.5q-23 -47 -46.5 -101t-45 -110t-39 -112t-29.5 -106q-4 -20 -11.5 -37.5t-20.5 -32.5q-26 -30 -58.5 -38.5t-62.5 5.5t-45.5 46.5t-10.5 67.5q2 13 5.5 24.5t8.5 23.5q13 32 26 63.5t27 65.5z" />
    <glyph glyph-name="z" unicode="z" horiz-adv-x="553" 
d="M332 506q-40 2 -76.5 4t-72.5 5q-15 1 -29.5 3.5t-28.5 6.5q-16 4 -33 16q-37 25 -31 68q6 39 45 52q14 5 29 7.5t29 2.5q52 0 103.5 -1t102.5 -3q25 -1 47.5 -8.5t43.5 -19.5q32 -19 43.5 -49t-1.5 -65q-16 -39 -38 -72q-34 -51 -68.5 -99.5t-69.5 -97.5
q-19 -26 -37.5 -51.5t-37.5 -51.5q-2 -2 -3 -5t-4 -8q15 2 28 2t25 2q28 4 55.5 2t53.5 -12q10 -4 19.5 -8.5t17.5 -11.5q14 -12 19 -27t2 -29.5t-13 -27t-27 -18.5q-7 -2 -13.5 -4t-13.5 -2l-120 -4l-120 -4q-11 0 -22.5 1t-22.5 3q-24 4 -41 16.5t-25 29.5t-7 38t13 42
q12 20 27 39l30 38q30 38 61.5 75t61.5 76q21 27 40 56t39 58q5 8 9.5 16.5t10.5 19.5z" />
    <glyph glyph-name="braceleft" unicode="{" horiz-adv-x="444" 
d="M269 322q26 -26 35 -55t9 -59q0 -32 -2.5 -64t-3.5 -63q-1 -18 -2.5 -28.5t1 -16t11 -8t26.5 -3.5q23 -3 39 -12.5t20 -26.5q4 -15 -5 -30.5t-32 -23.5q-41 -15 -80 -11.5t-70 19.5t-51.5 42.5t-24.5 57.5q-3 34 0.5 66t8.5 65q0 14 0.5 30t-2.5 29.5t-11.5 23.5
t-26.5 12q-26 3 -45 17.5t-24 34.5q-4 21 8 39t38 26q17 5 33 8q30 6 41 19t6 38q-5 21 -11.5 42t-15.5 44q-14 35 -18.5 72t8.5 75q14 44 44.5 74.5t86.5 44.5q25 6 49.5 3.5t47.5 -16.5q19 -10 28.5 -24.5t9 -29t-10.5 -28t-30 -21.5q-39 -10 -53 -34t-12 -53q2 -20 7 -40
l10 -40l6 -24t8 -24q10 -39 -1.5 -72.5t-40.5 -62.5q-2 -4 -4 -6t-4 -6z" />
    <glyph glyph-name="bar" unicode="|" horiz-adv-x="244" 
d="M51 628q0 30 9.5 55t36.5 30q17 5 32.5 -2.5t23.5 -26.5q8 -15 13.5 -45.5t9.5 -64t6 -64.5t4 -48q4 -58 6.5 -114.5t4.5 -115.5q1 -24 0.5 -63t-6.5 -77t-19.5 -67t-39.5 -35q-20 -3 -34.5 5.5t-24 23.5t-14.5 33t-8 35q-9 66 -10 134.5t1.5 137.5t5.5 136.5t3 132.5z
" />
    <glyph glyph-name="braceright" unicode="}" horiz-adv-x="444" 
d="M173 322q-2 4 -4 6t-4 6q-29 29 -40.5 62.5t-1.5 72.5q5 12 8 24l6 24l10 40t7 40q2 29 -12 53t-53 34q-20 8 -30 21.5t-10.5 28t8.5 29t29 24.5q23 14 47.5 16.5t49.5 -3.5q56 -14 86.5 -44.5t44.5 -74.5q13 -38 8.5 -75t-18.5 -72q-9 -23 -15.5 -44t-11.5 -42
q-5 -25 6 -38t41 -19q16 -3 33 -8q26 -8 38 -26t8 -39q-5 -20 -24 -34.5t-45 -17.5q-18 -2 -26.5 -12t-11.5 -23.5t-2.5 -29.5t0.5 -30q5 -33 8.5 -65t0.5 -66q-4 -31 -24.5 -57.5t-51.5 -42.5t-70 -19.5t-80 11.5q-23 8 -32 23.5t-5 30.5q4 17 20 26.5t39 12.5
q18 1 26.5 3.5t11 8t1 16t-2.5 28.5q-1 31 -3.5 63t-2.5 64q0 30 9 59t35 55z" />
    <glyph glyph-name="asciitilde" unicode="~" horiz-adv-x="742" 
d="M199 257q-7 -19 -16 -33.5t-20.5 -22.5t-26 -9t-32.5 7q-21 9 -29 28t-1 42q12 42 32 80.5t50 71.5q25 28 54 41.5t59 12.5t58 -15.5t52 -43.5q22 -27 36.5 -50.5t28 -32t28 2t35.5 50.5q9 18 20.5 32t28.5 25q46 28 84 -1q17 -12 23 -32t-3 -44q-34 -94 -110 -164
q-26 -24 -57.5 -36t-62.5 -9.5t-58 20t-45 52.5q-14 26 -30.5 51t-33 35.5t-33 -0.5t-31.5 -58z" />
    <glyph glyph-name="cent" unicode="&#xa2;" horiz-adv-x="486" 
d="M308 154q2 -12 4 -23t2 -21q1 -15 0.5 -28.5t-3.5 -27.5q-4 -22 -19 -32.5t-36 -9.5q-18 2 -31.5 14.5t-16.5 33.5q-1 9 -1 17.5v16.5l-2 24t-2 25q-5 2 -9 3t-8 3q-34 9 -60 28t-42 45t-20.5 58t4.5 66q27 114 134 159q13 6 27 11q0 15 -0.5 30.5t0.5 29.5q2 26 19 39.5
t41 9.5q40 -6 43 -50q2 -11 1 -22.5t-1 -24.5q5 -2 11 -4t13 -4q14 -5 26.5 -12t22.5 -19q10 -13 13 -27t-1 -26.5t-15 -22t-28 -12.5q-14 -5 -29.5 -6t-30.5 -5q-49 -15 -74 -41t-24 -48.5t29.5 -33.5t88.5 6q17 3 32.5 -4t24 -19t8.5 -27.5t-13 -29.5q-10 -10 -22 -16.5
t-26 -13.5q-7 -3 -14.5 -5t-15.5 -4z" />
    <glyph glyph-name="sterling" unicode="&#xa3;" horiz-adv-x="611" 
d="M272 86q-19 -10 -37.5 -19t-38.5 -18q-38 -17 -73.5 -18.5t-58.5 24.5q-9 10 -16 25.5t-6 32.5t12.5 33.5t37.5 27.5q20 9 40 20t32.5 29t14 44.5t-13.5 65.5q-9 0 -19 -1t-20 1q-15 1 -30 6q-26 13 -30 37.5t17 41.5q18 12 40 16t42 7q0 38 -0.5 70.5t5.5 62.5
q13 58 50.5 89.5t96.5 44.5q23 5 44 4.5t41 -9.5q18 -8 31.5 -20t19.5 -29q9 -24 0 -46t-35 -35q-11 -5 -22.5 -9.5t-23.5 -9.5q-13 -5 -19 -20t-7.5 -32.5t0 -35t4.5 -28.5q20 -2 38.5 -3.5t38.5 -4.5q22 -3 40 -11q14 -7 21 -18t7 -24q-3 -30 -28 -38q-16 -4 -36 -6h-78
q-2 -34 -3 -65t-2 -65q11 -7 20.5 -13.5t18.5 -9.5t18 -1t20 11q8 8 16 17l16 18q16 16 35.5 19.5t39.5 -7.5q20 -10 28.5 -28.5t2.5 -39.5q-10 -26 -23 -50.5t-33 -44.5q-32 -33 -76 -40t-91 15q-17 7 -34 17z" />
    <glyph glyph-name="yen" unicode="&#xa5;" horiz-adv-x="534" 
d="M293 482q16 24 31.5 47.5t30.5 46.5q5 8 10.5 15t10.5 13q14 13 29.5 16t31.5 -5q33 -16 30 -51q-2 -9 -4 -18.5t-7 -20.5q-18 -41 -36.5 -80.5t-36.5 -79.5q-5 -12 -13 -26q22 -2 42.5 -3t39.5 -6q24 -7 29 -34q2 -12 -3 -23t-15 -16q-11 -6 -24 -9t-24 -5
q-13 -2 -25 -1t-26 1q-1 -11 -1 -20t-1 -18q19 -3 36 -6q8 -3 15.5 -5t14.5 -7q11 -6 16 -17.5t2 -22.5q-4 -13 -13.5 -21t-23.5 -8t-27.5 0.5t-29.5 1.5q-4 -14 -8 -31.5t-12 -33t-21.5 -26.5t-36.5 -11q-26 0 -38 7.5t-16 19.5t-3.5 27t-0.5 30q-9 -1 -17.5 -2t-19.5 -2
q-9 -1 -18 -1.5t-19 -0.5q-34 0 -45 32q-5 16 0 28.5t17 23.5q13 11 29.5 16t33.5 7q8 2 15.5 2.5t15.5 1.5q13 1 9 20q-8 -1 -16.5 -1.5t-18.5 -1.5q-13 -2 -25 -2.5t-26 0.5q-17 2 -29 11.5t-14 23.5q-4 17 3.5 31t25.5 20q18 7 38 9.5t40 5.5q8 2 17 3.5t19 3.5q2 8 2 16
t2 16q-30 16 -57.5 38t-50.5 47t-42 50.5t-32 48.5q-8 15 -7.5 30.5t11.5 29.5q10 15 24.5 20.5t32.5 3.5q15 -2 27 -9.5t23 -17.5q31 -29 68.5 -60.5t60.5 -60.5z" />
    <glyph glyph-name="multiply" unicode="&#xd7;" horiz-adv-x="329" 
d="M146 236q-7 -6 -13 -13t-12 -12q-9 -8 -20 -15q-13 -5 -26.5 -2.5t-21.5 11.5t-8.5 21.5t6.5 23.5q3 6 7.5 11t7.5 10q5 5 9 10t8 9q-8 8 -13.5 14t-10.5 14q-16 19 -5 43q6 11 15.5 16.5t22.5 3.5q14 -3 28 -8.5t31 -10.5q6 4 14 10.5t18 13.5q12 8 25.5 14t27.5 4
q27 -2 39 -26q6 -12 3 -24t-11 -20q-10 -10 -21 -18t-22 -17l18 -18t18 -19q7 -11 7.5 -22t-4.5 -20.5t-14 -15.5t-22 -6q-10 -1 -19.5 1.5t-19.5 6.5q-3 1 -9 5.5t-12.5 9.5t-12 9t-8.5 6z" />
    <glyph glyph-name="divide" unicode="&#xf7;" horiz-adv-x="282" 
d="M130 238h-25.5t-26.5 1q-6 0 -12 1t-11 4q-14 5 -21 16t-5 22q3 25 30 36q8 2 15.5 3t15.5 2q27 1 55 1h56q32 0 40 -27q4 -12 -0.5 -24.5t-16.5 -20.5q-20 -12 -39 -13q-14 -2 -27.5 -1.5t-27.5 0.5zM177 370q-1 -16 -12.5 -26t-28.5 -10q-16 1 -27 12t-10 26
q0 16 13 27t30 10q15 -2 25.5 -13t9.5 -26zM131 149q-16 0 -28 11.5t-11 25.5q0 14 11.5 24.5t26.5 10.5q17 0 28 -11t11 -26q-1 -14 -11.5 -24.5t-26.5 -10.5z" />
    <glyph glyph-name="Euro" unicode="&#x20ac;" horiz-adv-x="656" 
d="M322 234q27 -27 56 -32t58.5 3t58 23.5t54.5 27.5q31 8 52 -24q18 -27 4 -60q-7 -17 -18 -27q-44 -42 -93 -70.5t-109 -29.5q-74 -2 -128 33.5t-92 104.5q-5 8 -8 15.5t-8 15.5q-11 -2 -20.5 -3.5t-19.5 -2.5q-20 0 -33.5 10t-17.5 28q-5 18 3 34.5t27 25.5q11 5 21 8
t21 8v29q-11 -1 -20 -2t-18 -1q-18 0 -30.5 8.5t-15.5 24.5q-4 18 3.5 32.5t27.5 22.5q11 5 24 9t25 5q20 1 31.5 11.5t20.5 28.5q50 88 122.5 130t165.5 42q20 1 38.5 -4.5t35.5 -15.5q9 -7 18 -15t14 -16q14 -18 15.5 -38.5t-9.5 -37.5q-10 -18 -27.5 -24.5t-37.5 1.5
q-44 17 -79.5 6t-66.5 -49h77q5 0 10.5 0.5t10.5 0.5q14 -2 23.5 -10t12.5 -22q4 -14 -3 -28t-20 -19q-8 -4 -17.5 -6.5t-18.5 -3.5q-33 -2 -67 -4.5t-70 -5.5q-1 -8 -2 -15t-3 -17q26 4 49.5 6t46.5 4q8 1 14.5 1.5t13.5 -0.5q27 -4 34 -35q4 -14 -1.5 -27.5t-16.5 -21.5
q-8 -5 -16 -7.5t-16 -4.5q-20 -5 -41 -10t-45 -10z" />
    </font>
</defs>
</svg>
