<?xml version="1.0" standalone="no"?>
<!DOCTYPE svg PUBLIC "-//W3C//DTD SVG 1.1//EN" "http://www.w3.org/Graphics/SVG/1.1/DTD/svg11.dtd" >
<svg xmlns="http://www.w3.org/2000/svg" xmlns:xlink="http://www.w3.org/1999/xlink" version="1.1">
<metadata>
Created by FontForge 20170731 at Wed Nov 26 13:45:05 2008
 By Aleksey,,,
Copyright (c) 2008 by . All rights reserved.
</metadata>
<defs>
<font id="WhiskeyTown-Sober" horiz-adv-x="502" >
  <font-face 
    font-family="Whiskey Town"
    font-weight="400"
    font-stretch="normal"
    units-per-em="1000"
    panose-1="0 0 0 0 0 0 0 0 0 0"
    ascent="750"
    descent="-250"
    x-height="709"
    cap-height="743"
    bbox="0 -141 631 773"
    underline-thickness="50"
    underline-position="-150"
    unicode-range="U+0020-201D"
  />
<missing-glyph horiz-adv-x="500" 
 />
    <glyph glyph-name=".notdef" horiz-adv-x="500" 
 />
    <glyph glyph-name=".null" horiz-adv-x="0" 
 />
    <glyph glyph-name="nonmarkingreturn" horiz-adv-x="500" 
 />
    <glyph glyph-name="space" unicode=" " horiz-adv-x="270" 
 />
    <glyph glyph-name="space" unicode="&#xa0;" horiz-adv-x="270" 
 />
    <glyph glyph-name="exclam" unicode="!" horiz-adv-x="201" 
d="M38 -1l12 127h102l12 -126zM52 187q-2 36 -5 79.5t-7 89t-8.5 89.5t-8 82t-6 67.5t-2.5 44.5q0 29 6.5 56t23.5 45q4 5 20.5 7t35 1.5t35 -4.5t21.5 -11q13 -17 19 -42t6 -52q0 -15 -2 -44.5t-5.5 -67.5t-7.5 -82t-7.5 -89.5t-6.5 -89t-4 -79.5h-97z" />
    <glyph glyph-name="quotedbl" unicode="&#x22;" horiz-adv-x="269" 
d="M115 644l12 -126l-126 -1l14 127q9 45 38.5 72t72.5 35v-45q-24 -6 -41 -21t-24 -41h54zM256 644l13 -126l-127 -1l14 127q9 45 38.5 72t73.5 35v-45q-24 -6 -41 -21t-24 -41h53z" />
    <glyph glyph-name="numbersign" unicode="#" horiz-adv-x="365" 
d="M347 235l-88 9l-5 -74h5l88 9v-45l-88 9l8 -126h-47l8 122h-65l8 -120h-47l8 125l-118 -9v46l118 -9h2l-5 73l-115 -8v45l118 -9l-8 106h47l-9 -106l67 -4v2l-9 106h47l-8 -106l88 9v-45zM160 245v-73l2 -4h66v76l-66 1h-2z" />
    <glyph glyph-name="dollar" unicode="$" horiz-adv-x="385" 
d="M362 278l-3 -161q-3 -116 -107 -124l11 -91l-104 5l2 94q-6 2 -9 3.5l-5 2.5t-3 2l-113 13l-11 183l134 -17v-12v-9q0 -12 1.5 -14t3.5 -7q4 -12 26 -12q23 0 43 14q5 3 9 14.5t6.5 25.5t3.5 26.5t1 18.5q0 51 -12 66q-22 25 -103 25q-68 0 -91 29q-22 25 -22 98l-1 101
q-2 46 28 77q14 14 25 23t33 14l3 107l105 -6l-1 -104q11 -3 20 -4t16 -1q8 0 14 1l82 -1l-2 -164l-76 21q-2 7 -5 13q-2 5 -5 10.5t-6 7.5q-4 2 -12 3t-22 1q-42 0 -53 -10q-3 -3 -5 -14t-3.5 -25t-2 -27.5t-0.5 -20.5q0 -37 20 -48q2 -1 15.5 -4.5t39.5 -8.5
q91 -20 104 -29q33 -20 31 -85z" />
    <glyph glyph-name="percent" unicode="%" horiz-adv-x="441" 
d="M94 92l196 347l23 58h74l-49 -66l-194 -343l-21 -57h-74zM12 449q0 39 14 56q16 19 57 22q47 3 63 -16q15 -15 15 -60l2 -159q1 -40 -17 -60q-18 -19 -59 -18q-47 1 -63 24q-12 18 -12 63v148zM64 333q-1 -16 5 -26q7 -8 18 -7q17 2 21 7q5 7 5 24l2 75q0 17 -8 22
q-6 6 -20 7q-20 3 -22 -29zM272 233q0 39 15 56q16 21 56 22q48 3 64 -15q13 -17 15 -60l2 -159q0 -41 -17 -61q-19 -19 -59 -17q-48 0 -63 23q-13 19 -13 63v148zM324 117q0 -19 5 -25q6 -9 19 -8q17 2 21 7q5 8 5 25l2 74q0 15 -8 23q-5 4 -20 7q-22 1 -22 -29z" />
    <glyph glyph-name="ampersand" unicode="&#x26;" horiz-adv-x="591" 
d="M572 168v-22q0 -69 -26 -108t-80 -39q-17 0 -34 -0.5t-33.5 1.5t-32.5 8.5t-31 20.5q-17 -13 -36.5 -19.5t-39.5 -8.5t-38.5 -2h-34.5q-60 0 -99 23t-62 59q-6 9 -8.5 31.5t-3 51t1.5 60t6.5 60t10.5 50.5t14 32q17 20 36 35.5t39 27.5q-12 31 -19.5 66t-7.5 70
q0 53 20.5 91t55.5 57q7 4 24.5 6t37 3t36.5 0t24 -3q38 -15 62 -51t24 -91q0 -57 -23 -105.5t-67 -95.5q9 -15 19 -32.5t21 -35t22 -34.5t20 -31l19 24q11 15 14.5 31.5t3.5 27.5q0 35 -28 35l-12 48l155 20q1 -20 0 -38q-1 -15 -2.5 -30.5t-3.5 -23.5q-17 -48 -38 -96
t-54 -82q4 -9 7.5 -22t9 -25t14 -21t22.5 -10q15 -1 24.5 6t15 17t8 22t2.5 21zM206 112q26 2 42 8.5t27 17.5q-14 17 -28 38.5t-27 44.5t-24.5 45.5t-19.5 42.5q-25 -17 -30.5 -45t-5.5 -57q0 -19 1 -37t7 -31.5t19.5 -21t38.5 -5.5zM240 493q20 17 34 43.5t14 53.5
q0 24 -9 33.5t-29 9.5q-45 0 -45 -47q0 -21 11 -48t24 -45z" />
    <glyph glyph-name="quotesingle" unicode="'" horiz-adv-x="162" 
d="M17 623v127h126v-110q0 -56 -9 -87q-9 -30 -37 -51q-28 -19 -80 -21v53q61 10 61 77v12h-61z" />
    <glyph glyph-name="parenleft" unicode="(" horiz-adv-x="196" 
d="M176 179l4 -159l-179 -18v742l195 12l-17 -134l-70 -11l21 -415l46 -17v0z" />
    <glyph glyph-name="parenright" unicode=")" horiz-adv-x="196" 
d="M196 729v-743l-179 18l1 156l49 20l21 415l-74 20l-13 126l195 -12v0z" />
    <glyph glyph-name="asterisk" unicode="*" horiz-adv-x="273" 
d="M259 484l-42 -46l-53 69l5 -102h-63l4 98l-45 -83l-47 43l78 63l-92 -5v61l80 -4l-63 39l41 46l49 -78l-5 104h63l-4 -99l44 83l47 -43l-68 -52l82 4v-61l-77 4l66 -41v0z" />
    <glyph glyph-name="plus" unicode="+" horiz-adv-x="453" 
d="M269 243l13 -209h-109l13 209l-185 -13v105l185 -12l-13 194h109l-13 -194l183 12v-105l-183 13v0z" />
    <glyph glyph-name="comma" unicode="," horiz-adv-x="128" 
d="M1 1v127h126v-110q0 -56 -9 -87q-9 -30 -37 -51q-28 -19 -80 -21v53q61 10 61 77v12h-61z" />
    <glyph glyph-name="hyphen" unicode="-" horiz-adv-x="200" 
d="M1 394l199 12v-92h-199v80v0z" />
    <glyph glyph-name="period" unicode="." horiz-adv-x="128" 
d="M1 -1v127h126v-126l-126 -1v0z" />
    <glyph glyph-name="slash" unicode="/" horiz-adv-x="342" 
d="M254 673h88l-49 -66l-183 -552l-22 -57h-87l45 61l186 556l22 58v0z" />
    <glyph glyph-name="zero" unicode="0" horiz-adv-x="379" 
d="M14 549q0 92 34 132q38 47 133 52q112 6 149 -37q34 -37 35 -140l5 -373q0 -98 -41 -142q-41 -45 -138 -42q-109 3 -147 56q-29 41 -29 148zM136 278q-2 -41 12 -60q14 -21 43 -18q38 3 49 17t13 57l4 175q0 37 -19 53q-13 11 -47 16q-51 4 -51 -68z" />
    <glyph glyph-name="one" unicode="1" horiz-adv-x="288" 
d="M278 12l-255 -8l-9 123l64 11l5 453h-25l-25 137l196 -4l-7 -588h49l7 -124v0z" />
    <glyph glyph-name="two" unicode="2" horiz-adv-x="386" 
d="M374 169l-5 -164l-355 -8l-3 86q-1 33 8 58q5 11 9.5 23t9.5 24q20 50 92 113q4 4 24.5 17.5t58.5 37.5q46 28 46 57l-5 115q-3 53 -44 53q-52 0 -49 -56l6 -42q-8 -1 -32 7t-50 17q-31 11 -67 24q9 182 203 182q153 0 153 -184v-71q0 -58 -26 -92q-16 -21 -72 -61
q-57 -38 -81 -62q-8 -8 -15.5 -25t-13 -35.5t-9 -35t-3.5 -25.5l127 2q0 25 3 64z" />
    <glyph glyph-name="three" unicode="3" horiz-adv-x="375" 
d="M363 180q0 -89 -50 -141q-44 -47 -110 -45q-184 3 -187 202l-4 72l139 33l-3 -22q-1 -3 -1.5 -15.5t-0.5 -27.5v-27.5v-14.5q0 -44 39 -45q35 -1 47 20q1 3 2.5 18t2 34t1 37.5t0.5 28.5v38q0 11 -13 25t-29.5 26t-30.5 20.5t-17 8.5v70l98 110l-6 23l-150 -8l-73 134
l339 3l3 -210q-32 -21 -48 -43q-7 -9 -10.5 -19.5t-1.5 -21.5t11 -22.5t27 -21.5q17 -11 21.5 -43t4.5 -74v-102z" />
    <glyph glyph-name="four" unicode="4" horiz-adv-x="432" 
d="M423 6l-198 -4l37 164l3 92l-233 -6l4 328l-24 129l167 10l-10 -123l-15 3l4 -264l110 6l4 270l-18 2l-5 106l172 -6l-35 -138l-13 -408l50 -161v0z" />
    <glyph glyph-name="five" unicode="5" horiz-adv-x="382" 
d="M372 129q3 -132 -130 -132q-16 0 -33.5 2.5t-31.5 6.5q-17 4 -33 9l-120 13l-12 234l143 9v-14v-8v-18t0.5 -22.5t1.5 -20.5t2 -11q7 -12 28 -12q37 0 45 4q6 3 10 12.5t7 22t4.5 26t1.5 22.5q0 52 -14 69q-22 22 -108 28q-75 3 -98 31t-23 104l-1 215l259 20l87 -1
l-2 -130l-200 -23q0 -7 -0.5 -18.5t-0.5 -23.5v-22.5v-14.5q0 -40 20 -50q5 -3 58 -15q17 -2 32.5 -4.5t31.5 -5.5q36 -9 51 -32q21 -29 23 -95z" />
    <glyph glyph-name="six" unicode="6" horiz-adv-x="381" 
d="M324 713l31 -192l-126 -1q0 6 0.5 17t0.5 16q0 54 -45 54q-25 0 -36 -24.5t-9 -62.5l6 -92l24.5 3.5t20.5 2t21 1t26 0.5q33 0 58.5 -15t42 -40t25 -58.5t8.5 -70.5v-84q0 -92 -35 -129q-37 -40 -132 -40h-8q-96 -1 -136 40q-41 42 -42 135l-8 370q-3 91 27 133
q28 43 99 43h36t17 -1q7 -2 29 -2.5t45 -1.5q27 -1 60 -1zM243 196v53q0 8 -0.5 20.5t-1.5 25t-2.5 23t-3.5 13.5q-11 20 -41 20q-29 0 -40 -20q-2 -3 -3.5 -13.5t-2.5 -23t-1.5 -25t-0.5 -20.5v-53q0 -34 7 -47q10 -19 41 -19t41 19q8 14 8 47z" />
    <glyph glyph-name="seven" unicode="7" horiz-adv-x="406" 
d="M348 539l-135 -346l49 -191l-202 -8l31 172l14 8l149 405l-143 -5l-2 -53l-96 -9l8 204l372 -7l-45 -170v0z" />
    <glyph glyph-name="eight" unicode="8" horiz-adv-x="370" 
d="M359 192q0 -6 0.5 -12.5t0.5 -13.5q0 -160 -178 -169q-170 -9 -170 163v94q0 109 76 131q-40 14 -54 43q-14 27 -14 80v63q0 142 162 156q162 13 162 -147v-72q0 -53 -14 -80q-14 -29 -54 -43q39 -11 54 -42q16 -29 22 -89zM253 200q0 63 -62 63t-62 -63q0 -32 7 -43
q13 -19 55 -19q62 0 62 62zM221 529q0 26 -5 39q-10 16 -34 16q-39 0 -39 -52q0 -57 39 -57t39 54z" />
    <glyph glyph-name="nine" unicode="9" horiz-adv-x="386" 
d="M376 173q2 -90 -26 -131q-29 -44 -100 -44h-35.5t-17.5 1q-14 1 -22.5 1.5t-30.5 2.5q-31 2 -53.5 11.5t-38 23t-24.5 30.5t-14 34q-11 40 -5 91l153 -5q-1 -2 -2 -5q-2 -6 -2 -11q0 -53 44 -53q49 0 46 74l-4 75q-24 -5 -44.5 -3t-49.5 2q-134 0 -134 148v134
q0 93 35 131q36 38 131 39h8q96 1 138 -41q39 -42 40 -135zM241 489v28q0 32 -7 48q-11 19 -41 19t-41 -19q-7 -14 -7 -48v-28q0 -34 7 -47q11 -20 41 -20q29 0 41 20q3 7 5 18.5t2 28.5z" />
    <glyph glyph-name="colon" unicode=":" horiz-adv-x="153" 
d="M21 49v0v0v113v0h112v0v-112zM21 303v0v0v113v0h112v0v-112z" />
    <glyph glyph-name="semicolon" unicode=";" horiz-adv-x="138" 
d="M12 34v113h113v-103q0 -57 -9 -85q-8 -30 -34 -47t-70 -20v41q30 5 46 26.5t16 55.5l-1 1v12v6h-61zM12 401h113v-112l-113 -1v113z" />
    <glyph glyph-name="equal" unicode="=" horiz-adv-x="296" 
d="M1 298l294 11v-78h-294v67zM295 353l-294 -12v79h294v-67z" />
    <glyph glyph-name="question" unicode="?" horiz-adv-x="403" 
d="M131 1l12 127h102l12 -126zM145 190v60q0 50 18.5 88t40.5 71.5t40.5 66.5t18.5 72q0 47 -19 71.5t-66 24.5q-21 0 -36.5 -6t-25 -16t-14 -21.5t-4.5 -21.5q0 -27 25 -30q21 -4 21.5 -25t0.5 -51q0 -15 -1.5 -29.5t-6 -25t-14 -17t-24.5 -6.5q-41 0 -64 42t-23 111
q0 47 16 83t43 60t61.5 36.5t71.5 12.5t70.5 -12t58.5 -34.5t40 -55.5t15 -76q0 -33 -6.5 -60.5t-17.5 -50t-24.5 -40.5t-27.5 -32q-15 -15 -33 -28.5t-31 -33t-17.5 -49t6.5 -78.5h-92z" />
    <glyph glyph-name="A" unicode="A" horiz-adv-x="505" 
d="M485 -7l-155 9l-28 261h-103l-26 -254l-173 -8l9 145h38l67 449h-42l-6 157h346l-2 -172h-42l68 -437h37l12 -150v0zM289 390l-22 174l-42 -2l-8 -172h72v0z" />
    <glyph glyph-name="B" unicode="B" horiz-adv-x="440" 
d="M420 132q0 -82 -64 -109q-50 -22 -190 -22h-165l19 190l6 365l-18 185h190q222 0 222 -152v-169q0 -73 -94 -87q48 -8 68 -25q26 -23 26 -67v-109zM271 510v15q0 32 -9 46t-37 14q-5 0 -10 -0.5t-11 -1.5l-77 -9l-1 -122l78 1q40 1 53 10q14 9 14 47zM252 208v54
q0 28 -11 36t-43 8h-69l1 -143h68q36 0 44 8q10 9 10 37z" />
    <glyph glyph-name="C" unicode="C" horiz-adv-x="395" 
d="M378 716l8 -300l-162 5l5 78q0 6 0.5 11.5t0.5 10.5q0 56 -47 56q-52 0 -47 -78l10 -271q3 -46 11 -59q5 -10 14 -15.5t23 -3.5q14 1 24.5 10.5t18 23t12 30.5t6.5 35q5 41 3 92l137 5l-13 -165q-9 -96 -49 -137q-43 -44 -137 -46q-102 0 -144 44q-40 43 -43 139l-8 345
q-3 93 28 139q31 45 104 45h37t18 -1q7 -2 15.5 0.5t15.5 5.5q8 4 16 9z" />
    <glyph glyph-name="D" unicode="D" horiz-adv-x="405" 
d="M406 192q2 -106 -46 -149q-47 -43 -170 -43q-12 0 -25.5 0.5t-27.5 1.5l-136 10l33 243l2 311l-18 186l111 -5q158 -4 212 -42q55 -36 56 -148zM267 271l-1 182q0 9 -0.5 26t-2 34t-3.5 30.5t-4 15.5q-14 12 -57 15l-69 3l-2 -368l73 1q66 1 66 61z" />
    <glyph glyph-name="E" unicode="E" horiz-adv-x="451" 
d="M431 760l-6 -218l-90 -3l2 39h-166v-127l91 3l-4 -125l-87 5v-204l136 -2l-1 105l124 6l-5 -239l-410 -9l19 181l9 347l-43 223l431 18v0z" />
    <glyph glyph-name="F" unicode="F" horiz-adv-x="409" 
d="M399 511l-92 4l3 58l-134 -7l-4 -132l90 7l-8 -118h-78l-4 -119l56 -214l-219 9l19 186l6 368l-33 188l387 8l11 -238v0z" />
    <glyph glyph-name="G" unicode="G" horiz-adv-x="434" 
d="M431 765l-6 -236l-128 7v55q0 19 -26 24q-5 1 -56 1q-17 0 -26 -7.5t-17 -15.5q-5 -6 -9 -22t-6.5 -36.5t-4 -42t-1.5 -36.5v-193v-44t1.5 -40t5 -30t10.5 -15q7 -2 14.5 -2t26.5 -2q23 -1 38 5t24 17.5t13 26.5t4 31l-18 24h-35l-2 102l193 13l-4 -115q5 -68 2 -121
q-1 -23 -4 -44.5t-9 -38t-15.5 -26.5t-22.5 -9q-12 -2 -28 -2h-30q-17 0 -34 1q-22 1 -42 2q-17 1 -36.5 2t-33.5 1q-39 0 -71 11.5t-49 34.5q-16 22 -32 56t-16 82v398q0 45 19.5 79.5t42.5 59.5q22 23 56.5 34t73.5 11q37 0 78 -9q12 -4 24 -3t22 3q11 3 22 7z" />
    <glyph glyph-name="H" unicode="H" horiz-adv-x="487" 
d="M486 742l-28 -185l6 -407l12 -154l-183 7l12 135l27 12v167l-149 6l3 -149l22 -34v-138l-180 -6l25 179l-14 377l-38 193l224 8l-23 -161l-14 -2l5 -146l119 -9l5 117l-13 21l-25 180l207 -11v0z" />
    <glyph glyph-name="I" unicode="I" horiz-adv-x="223" 
d="M181 563l-5 -349l37 -207l-212 -11l45 229l10 346l-43 156l200 16l-32 -180v0z" />
    <glyph glyph-name="J" unicode="J" horiz-adv-x="404" 
d="M405 763l-19 -146l-3 -420q0 -64 -21 -106.5t-47 -64.5q-38 -33 -134 -33q-51 0 -82.5 -1.5t-54.5 1.5q-14 2 -23 15.5t-13.5 34.5t-5.5 46.5t0 52.5q3 62 15 141l133 6v-49q0 -19 -0.5 -36t0.5 -19q9 -58 44 -58q46 0 46 126q0 35 -1.5 115t-3.5 207l-40 179z" />
    <glyph glyph-name="K" unicode="K" 
d="M502 738l-74 -194l-128 -135l144 -217l62 -202l-169 1l-62 204l-66 103l-15 -109l-6 -189h-179l30 219l-3 376l-11 143h183l-19 -163l5 -75l129 102l11 136h168v0z" />
    <glyph glyph-name="L" unicode="L" horiz-adv-x="416" 
d="M416 216l-25 -220l-389 7l29 230l3 309l-32 201l212 8l-49 -189l7 -416l124 6l1 90l119 -26v0z" />
    <glyph glyph-name="M" unicode="M" horiz-adv-x="607" 
d="M607 -2l-207 15l8 196l22 2l-20 307l-97 -246l-167 205v-271l27 -3l41 -205l-209 5l14 198l7 352l-25 199h106l183 -247l79 247l220 -2l-19 -206l5 -339l32 -207v0z" />
    <glyph glyph-name="N" unicode="N" horiz-adv-x="501" 
d="M500 730l-25 -182l-1 -524l-183 17l-154 471v-334l18 -3l25 -177h-179l18 187l-3 363l-15 200l195 -7l176 -471l-11 270l-15 25l-4 165h158v0z" />
    <glyph glyph-name="O" unicode="O" horiz-adv-x="392" 
d="M385 163q1 -96 -41 -140q-23 -23 -59 -25.5t-87 -0.5q-58 1 -96.5 6.5t-57.5 32.5q-31 43 -31 147l-1 378q0 91 36 132q20 23 54.5 27.5t85.5 6.5q58 3 97 3t60 -22q34 -38 35 -141zM284 531q0 9 -18.5 17.5t-41.5 11t-42.5 -3.5t-19.5 -24l-4 -274q0 -42 14 -60
q3 -5 17.5 -7t31 -1.5t30 2.5t16.5 6q11 13 13 56z" />
    <glyph glyph-name="P" unicode="P" horiz-adv-x="399" 
d="M399 601l-3 -182q-3 -122 -146 -132q-3 0 -39 -6q-18 -2 -28.5 -3.5t-12.5 -1.5l6 -143l43 -130l-210 -11l22 173l4 376l-34 188l155 13q15 2 29.5 2h28.5q97 0 142 -33q44 -34 43 -110zM276 499q0 11 -4.5 28t-12 32.5t-16.5 27t-18 11.5t-21 -3l-34 -4l6 -219h28
q25 0 46.5 15.5t23.5 46.5z" />
    <glyph glyph-name="Q" unicode="Q" 
d="M440 47q9 -5 19.5 -6t19.5 1q11 2 21 5q-5 -18 -12 -33q-6 -14 -15.5 -26.5t-20.5 -19.5q-6 -4 -17 -2t-22 6q-13 4 -27 10l-37 43q-14 -21 -37 -33.5t-55 -10.5q-7 0 -36 -0.5t-63 3.5t-64.5 14.5t-41.5 33.5q-11 26 -23.5 56.5t-11.5 76.5l5 398q2 99 40 140
q7 7 28.5 11.5t51 7t62.5 2.5t62.5 -2t51.5 -7t29 -12q43 -45 42 -141l-5 -404q0 -9 -0.5 -12t-1.5 -5.5t-2.5 -5.5t-3.5 -12q10 -11 20 -24t19 -24t15.5 -19t9.5 -9zM201 196l-20 24l-6 44l34 28l50 -52l3 2q5 7 7 8t2 14l-4 207q-1 42 -11 56q-9 12 -54 18q-29 3 -44 -18
q-8 -10 -11 -25t-3 -35l4 -204q1 -71 52 -67h1z" />
    <glyph glyph-name="R" unicode="R" horiz-adv-x="492" 
d="M482 170q0 -47 -6 -87t-17 -56q-23 -32 -91 -32q-53 0 -79 38.5t-26 98.5q0 30 3 65q2 17 3 31t1 25q0 70 -58 64l-50 -5l5 -172l12 -39l14 -116l-183 3l24 155l-10 377l-23 220l156 2q69 2 108 -2.5t65 -17.5q15 -8 28.5 -26t23 -41.5t15 -48.5t4.5 -47l-5 -74
q-3 -49 -24 -70q-9 -8 -17.5 -15t-25.5 -12q-5 -1 -5.5 -3t4.5 -3q32 -6 42.5 -31t12.5 -70q0 -5 -0.5 -12.5t-1.5 -16.5q-1 -5 -3.5 -12.5l-5 -15l-4.5 -13.5t-2 -7q0 -8 3.5 -19t15.5 -14q4 -1 13 1t17.5 9.5t12 21.5t-2.5 38q16 -2 28 -11q11 -8 20 -22t9 -38zM265 516
q0 6 -1 16t-2.5 21t-4.5 20t-7 12q-8 7 -17.5 18t-21.5 10l-59 -4l6 -171l51 1q31 0 41 8q10 7 13 38z" />
    <glyph glyph-name="S" unicode="S" horiz-adv-x="384" 
d="M384 139q3 -138 -136 -138q-17 0 -35 2.5t-33 6.5q-18 4 -35 10l-125 14l-13 192l150 -8v-15v-8q0 -14 1 -15.5t3 -5.5q8 -13 30 -13q35 0 47 5t17.5 26t5.5 41q0 27 -3.5 36.5t-10.5 17.5q-12 12 -38 16.5t-75 13.5q-19 3 -41.5 15t-42 35t-32 58.5t-11.5 85.5l-1 91
q-1 60 41 96q43 35 104 35q22 0 44.5 -2t40.5 -4q21 -3 41 -6l91 -1l-2 -182l-85 30l-1 16q0 9 -14 15t-33 7t-38.5 -3t-29.5 -15q-2 -3 -4 -12t-3 -20.5t-1.5 -23.5t-0.5 -19q0 -21 5 -25.5t16 -10.5q2 -1 17 -4.5t44 -9.5q17 -3 33.5 -5.5t33.5 -5.5q18 -5 31.5 -22
t21.5 -29q22 -32 24 -99z" />
    <glyph glyph-name="T" unicode="T" horiz-adv-x="476" 
d="M456 723l-2 -177l-91 14h-72l6 -433l23 -126l-183 8l11 129l1 422h-46l-89 -16l-4 173l446 6v0z" />
    <glyph glyph-name="U" unicode="U" horiz-adv-x="428" 
d="M418 701l-14 -116l13 -402q3 -89 -39 -134q-42 -44 -136 -50q-24 -2 -52 0t-55 7t-48.5 13t-31.5 19q-37 42 -37 134l-3 358l-7 155l153 -2l-8 -132l-23 -34l12 -259q1 -17 12.5 -29t27 -20.5t31.5 -12.5t26 -4q62 0 62 56l-4 327l-29 14l-12 120z" />
    <glyph glyph-name="V" unicode="V" horiz-adv-x="501" 
d="M502 754l-54 -184l-85 -556l-212 -13l-106 563l-44 173h175l-14 -89l111 -400l83 316l-26 35l-8 161l180 -6v0z" />
    <glyph glyph-name="W" unicode="W" horiz-adv-x="631" 
d="M628 687l-30 -146l-37 -367l70 -193l-169 11l-130 177l-113 -164l-201 -3l12 181v346l-21 185l205 -4l-33 -186l-4 -318l148 215l115 -171l31 303l-30 134h187v0z" />
    <glyph glyph-name="X" unicode="X" horiz-adv-x="506" 
d="M505 726l-53 -148l-101 -217l114 -176l23 -195l-161 10l11 100l-1 66l-80 104l-85 -100l5 -35v-135h-176l39 158l123 211l-119 198l-26 156l176 -1l3 -97l-5 -50l78 -123l84 126l-3 23v122l154 3v0z" />
    <glyph glyph-name="Y" unicode="Y" horiz-adv-x="483" 
d="M482 715l-55 -165l-110 -209l-3 -188l37 -148l-250 -14l57 139l5 214l-103 184l-50 195l185 4l-10 -111l-7 -21l76 -188l69 183l-21 17v112l180 -4v0z" />
    <glyph glyph-name="Z" unicode="Z" horiz-adv-x="394" 
d="M394 164l-10 -154l-383 -6l9 147l228 428l-122 12l-90 -39l-9 193l375 -8l-8 -181l-228 -417h149l12 27l77 -2v0z" />
    <glyph glyph-name="a" unicode="a" horiz-adv-x="505" 
d="M485 -7l-155 9l-28 261h-103l-26 -254l-173 -8l9 145h38l67 449h-42l-6 157h346l-2 -172h-42l68 -437h37l12 -150v0zM289 390l-22 174l-42 -2l-8 -172h72v0z" />
    <glyph glyph-name="b" unicode="b" horiz-adv-x="440" 
d="M420 132q0 -82 -64 -109q-50 -22 -190 -22h-165l19 190l6 365l-18 185h190q222 0 222 -152v-169q0 -73 -94 -87q48 -8 68 -25q26 -23 26 -67v-109zM271 510v15q0 32 -9 46t-37 14q-5 0 -10 -0.5t-11 -1.5l-77 -9l-1 -122l78 1q40 1 53 10q14 9 14 47zM252 208v54
q0 28 -11 36t-43 8h-69l1 -143h68q36 0 44 8q10 9 10 37z" />
    <glyph glyph-name="c" unicode="c" horiz-adv-x="395" 
d="M378 716l8 -300l-162 5l5 78q0 6 0.5 11.5t0.5 10.5q0 56 -47 56q-52 0 -47 -78l10 -271q3 -46 11 -59q5 -10 14 -15.5t23 -3.5q14 1 24.5 10.5t18 23t12 30.5t6.5 35q5 41 3 92l137 5l-13 -165q-9 -96 -49 -137q-43 -44 -137 -46q-102 0 -144 44q-40 43 -43 139l-8 345
q-3 93 28 139q31 45 104 45h37t18 -1q7 -2 15.5 0.5t15.5 5.5q8 4 16 9z" />
    <glyph glyph-name="d" unicode="d" horiz-adv-x="405" 
d="M406 192q2 -106 -46 -149q-47 -43 -170 -43q-12 0 -25.5 0.5t-27.5 1.5l-136 10l33 243l2 311l-18 186l111 -5q158 -4 212 -42q55 -36 56 -148zM267 271l-1 182q0 9 -0.5 26t-2 34t-3.5 30.5t-4 15.5q-14 12 -57 15l-69 3l-2 -368l73 1q66 1 66 61z" />
    <glyph glyph-name="e" unicode="e" horiz-adv-x="451" 
d="M431 760l-6 -218l-90 -3l2 39h-166v-127l91 3l-4 -125l-87 5v-204l136 -2l-1 105l124 6l-5 -239l-410 -9l19 181l9 347l-43 223l431 18v0z" />
    <glyph glyph-name="f" unicode="f" horiz-adv-x="409" 
d="M399 511l-92 4l3 58l-134 -7l-4 -132l90 7l-8 -118h-78l-4 -119l56 -214l-219 9l19 186l6 368l-33 188l387 8l11 -238v0z" />
    <glyph glyph-name="g" unicode="g" horiz-adv-x="434" 
d="M431 765l-6 -236l-128 7v55q0 19 -26 24q-5 1 -56 1q-17 0 -26 -7.5t-17 -15.5q-5 -6 -9 -22t-6.5 -36.5t-4 -42t-1.5 -36.5v-193v-44t1.5 -40t5 -30t10.5 -15q7 -2 14.5 -2t26.5 -2q23 -1 38 5t24 17.5t13 26.5t4 31l-18 24h-35l-2 102l193 13l-4 -115q5 -68 2 -121
q-1 -23 -4 -44.5t-9 -38t-15.5 -26.5t-22.5 -9q-12 -2 -28 -2h-30q-17 0 -34 1q-22 1 -42 2q-17 1 -36.5 2t-33.5 1q-39 0 -71 11.5t-49 34.5q-16 22 -32 56t-16 82v398q0 45 19.5 79.5t42.5 59.5q22 23 56.5 34t73.5 11q37 0 78 -9q12 -4 24 -3t22 3q11 3 22 7z" />
    <glyph glyph-name="h" unicode="h" horiz-adv-x="487" 
d="M486 742l-28 -185l6 -407l12 -154l-183 7l12 135l27 12v167l-149 6l3 -149l22 -34v-138l-180 -6l25 179l-14 377l-38 193l224 8l-23 -161l-14 -2l5 -146l119 -9l5 117l-13 21l-25 180l207 -11v0z" />
    <glyph glyph-name="i" unicode="i" horiz-adv-x="223" 
d="M181 563l-5 -349l37 -207l-212 -11l45 229l10 346l-43 156l200 16l-32 -180v0z" />
    <glyph glyph-name="j" unicode="j" horiz-adv-x="404" 
d="M405 763l-19 -146l-3 -420q0 -64 -21 -106.5t-47 -64.5q-38 -33 -134 -33q-51 0 -82.5 -1.5t-54.5 1.5q-14 2 -23 15.5t-13.5 34.5t-5.5 46.5t0 52.5q3 62 15 141l133 6v-49q0 -19 -0.5 -36t0.5 -19q9 -58 44 -58q46 0 46 126q0 35 -1.5 115t-3.5 207l-40 179z" />
    <glyph glyph-name="k" unicode="k" 
d="M502 738l-74 -194l-128 -135l144 -217l62 -202l-169 1l-62 204l-66 103l-15 -109l-6 -189h-179l30 219l-3 376l-11 143h183l-19 -163l5 -75l129 102l11 136h168v0z" />
    <glyph glyph-name="l" unicode="l" horiz-adv-x="416" 
d="M416 216l-25 -220l-389 7l29 230l3 309l-32 201l212 8l-49 -189l7 -416l124 6l1 90l119 -26v0z" />
    <glyph glyph-name="m" unicode="m" horiz-adv-x="607" 
d="M607 -2l-207 15l8 196l22 2l-20 307l-97 -246l-167 205v-271l27 -3l41 -205l-209 5l14 198l7 352l-25 199h106l183 -247l79 247l220 -2l-19 -206l5 -339l32 -207v0z" />
    <glyph glyph-name="n" unicode="n" horiz-adv-x="501" 
d="M500 730l-25 -182l-1 -524l-183 17l-154 471v-334l18 -3l25 -177h-179l18 187l-3 363l-15 200l195 -7l176 -471l-11 270l-15 25l-4 165h158v0z" />
    <glyph glyph-name="o" unicode="o" horiz-adv-x="411" 
d="M393 163q1 -96 -41 -140q-23 -23 -59 -25.5t-87 -0.5q-58 1 -96.5 6.5t-57.5 32.5q-31 43 -31 147l-1 378q0 91 36 132q20 23 54.5 27.5t85.5 6.5q58 3 97 3t60 -22q34 -38 35 -141zM292 531q0 9 -18.5 17.5t-41.5 11t-42.5 -3.5t-19.5 -24l-4 -274q0 -42 14 -60
q3 -5 17.5 -7t31 -1.5t30 2.5t16.5 6q11 13 13 56z" />
    <glyph glyph-name="p" unicode="p" horiz-adv-x="399" 
d="M399 601l-3 -182q-3 -122 -146 -132q-3 0 -39 -6q-18 -2 -28.5 -3.5t-12.5 -1.5l6 -143l43 -130l-210 -11l22 173l4 376l-34 188l155 13q15 2 29.5 2h28.5q97 0 142 -33q44 -34 43 -110zM276 499q0 11 -4.5 28t-12 32.5t-16.5 27t-18 11.5t-21 -3l-34 -4l6 -219h28
q25 0 46.5 15.5t23.5 46.5z" />
    <glyph glyph-name="q" unicode="q" 
d="M440 47q9 -5 19.5 -6t19.5 1q11 2 21 5q-5 -18 -12 -33q-6 -14 -15.5 -26.5t-20.5 -19.5q-6 -4 -17 -2t-22 6q-13 4 -27 10l-37 43q-14 -21 -37 -33.5t-55 -10.5q-7 0 -36 -0.5t-63 3.5t-64.5 14.5t-41.5 33.5q-11 26 -23.5 56.5t-11.5 76.5l5 398q2 99 40 140
q7 7 28.5 11.5t51 7t62.5 2.5t62.5 -2t51.5 -7t29 -12q43 -45 42 -141l-5 -404q0 -9 -0.5 -12t-1.5 -5.5t-2.5 -5.5t-3.5 -12q10 -11 20 -24t19 -24t15.5 -19t9.5 -9zM201 196l-20 24l-6 44l34 28l50 -52l3 2q5 7 7 8t2 14l-4 207q-1 42 -11 56q-9 12 -54 18q-29 3 -44 -18
q-8 -10 -11 -25t-3 -35l4 -204q1 -71 52 -67h1z" />
    <glyph glyph-name="r" unicode="r" horiz-adv-x="492" 
d="M482 170q0 -47 -6 -87t-17 -56q-23 -32 -91 -32q-53 0 -79 38.5t-26 98.5q0 30 3 65q2 17 3 31t1 25q0 70 -58 64l-50 -5l5 -172l12 -39l14 -116l-183 3l24 155l-10 377l-23 220l156 2q69 2 108 -2.5t65 -17.5q15 -8 28.5 -26t23 -41.5t15 -48.5t4.5 -47l-5 -74
q-3 -49 -24 -70q-9 -8 -17.5 -15t-25.5 -12q-5 -1 -5.5 -3t4.5 -3q32 -6 42.5 -31t12.5 -70q0 -5 -0.5 -12.5t-1.5 -16.5q-1 -5 -3.5 -12.5l-5 -15l-4.5 -13.5t-2 -7q0 -8 3.5 -19t15.5 -14q4 -1 13 1t17.5 9.5t12 21.5t-2.5 38q16 -2 28 -11q11 -8 20 -22t9 -38zM265 516
q0 6 -1 16t-2.5 21t-4.5 20t-7 12q-8 7 -17.5 18t-21.5 10l-59 -4l6 -171l51 1q31 0 41 8q10 7 13 38z" />
    <glyph glyph-name="s" unicode="s" horiz-adv-x="384" 
d="M384 139q3 -138 -136 -138q-17 0 -35 2.5t-33 6.5q-18 4 -35 10l-125 14l-13 192l150 -8v-15v-8q0 -14 1 -15.5t3 -5.5q8 -13 30 -13q35 0 47 5t17.5 26t5.5 41q0 27 -3.5 36.5t-10.5 17.5q-12 12 -38 16.5t-75 13.5q-19 3 -41.5 15t-42 35t-32 58.5t-11.5 85.5l-1 91
q-1 60 41 96q43 35 104 35q22 0 44.5 -2t40.5 -4q21 -3 41 -6l91 -1l-2 -182l-85 30l-1 16q0 9 -14 15t-33 7t-38.5 -3t-29.5 -15q-2 -3 -4 -12t-3 -20.5t-1.5 -23.5t-0.5 -19q0 -21 5 -25.5t16 -10.5q2 -1 17 -4.5t44 -9.5q17 -3 33.5 -5.5t33.5 -5.5q18 -5 31.5 -22
t21.5 -29q22 -32 24 -99z" />
    <glyph glyph-name="t" unicode="t" horiz-adv-x="476" 
d="M456 723l-2 -177l-91 14h-72l6 -433l23 -126l-183 8l11 129l1 422h-46l-89 -16l-4 173l446 6v0z" />
    <glyph glyph-name="u" unicode="u" horiz-adv-x="435" 
d="M423 701l-14 -116l13 -402q3 -89 -39 -134q-42 -44 -136 -50q-24 -2 -52 0t-55 7t-48.5 13t-31.5 19q-37 42 -37 134l-3 358l-7 155l153 -2l-8 -132l-23 -34l12 -259q1 -17 12.5 -29t27 -20.5t31.5 -12.5t26 -4q62 0 62 56l-4 327l-29 14l-12 120z" />
    <glyph glyph-name="v" unicode="v" horiz-adv-x="501" 
d="M502 754l-54 -184l-85 -556l-212 -13l-106 563l-44 173h175l-14 -89l111 -400l83 316l-26 35l-8 161l180 -6v0z" />
    <glyph glyph-name="w" unicode="w" horiz-adv-x="631" 
d="M628 687l-30 -146l-37 -367l70 -193l-169 11l-130 177l-113 -164l-201 -3l12 181v346l-21 185l205 -4l-33 -186l-4 -318l148 215l115 -171l31 303l-30 134h187v0z" />
    <glyph glyph-name="x" unicode="x" horiz-adv-x="506" 
d="M505 726l-53 -148l-101 -217l114 -176l23 -195l-161 10l11 100l-1 66l-80 104l-85 -100l5 -35v-135h-176l39 158l123 211l-119 198l-26 156l176 -1l3 -97l-5 -50l78 -123l84 126l-3 23v122l154 3v0z" />
    <glyph glyph-name="y" unicode="y" horiz-adv-x="483" 
d="M482 715l-55 -165l-110 -209l-3 -188l37 -148l-250 -14l57 139l5 214l-103 184l-50 195l185 4l-10 -111l-7 -21l76 -188l69 183l-21 17v112l180 -4v0z" />
    <glyph glyph-name="z" unicode="z" horiz-adv-x="394" 
d="M394 164l-10 -154l-383 -6l9 147l228 428l-122 12l-90 -39l-9 193l375 -8l-8 -181l-228 -417h149l12 27l77 -2v0z" />
    <glyph glyph-name="quotedblleft" unicode="&#x201c;" horiz-adv-x="319" 
d="M140 644l12 -126l-126 -1l14 127q9 45 38.5 72t72.5 35v-45q-24 -6 -41 -21t-24 -41h54zM281 644l13 -126l-127 -1l14 127q9 45 38.5 72t73.5 35v-45q-24 -6 -41 -21t-24 -41h53z" />
    <glyph glyph-name="quotedblright" unicode="&#x201d;" horiz-adv-x="303" 
d="M173 607l-13 126h127l-14 -126q-9 -46 -38.5 -72.5t-73.5 -35.5v45q24 6 41 21t24 42h-53zM31 607l-12 126h126l-14 -126q-9 -46 -38.5 -72.5t-73.5 -35.5v45q25 6 42 21t24 42h-54z" />
    </font>
</defs>
</svg>
